/* XPM */
static char *_35c4161c9c846189eeab3b4bf770e68TyNZMbdrJDi7VN8j[] = {
/* columns rows colors chars-per-pixel */
"32 32 2 1 ",
"  c black",
". c white",
/* pixels */
"................................",
".                              .",
". ............................ .",
". ............................ .",
". ............     ........... .",
". ..........         ......... .",
". .........   .....   ........ .",
". ........  .........  ....... .",
". ........  .........  ....... .",
". .......  ...........  ...... .",
". .......  ...........  ...... .",
". ....................  ...... .",
". ....................  ...... .",
". ....................  ...... .",
". ....................  ...... .",
". ...................  ....... .",
". ..................  ........ .",
". .................  ......... .",
". ................  .......... .",
". ...............  ........... .",
". ..............  ............ .",
". .............  ............. .",
". ............  .............. .",
". ...........  ............... .",
". ..........  ................ .",
". .........  ................. .",
". ........              ...... .",
". ........              ...... .",
". ............................ .",
". ............................ .",
".                              .",
"................................"
};
