/* XPM */
static char *_842f8594337440a86e0c1c589c60dcdQiqUlBIcEqFPigq9[] = {
/* columns rows colors chars-per-pixel */
"32 32 2 1 ",
"  c black",
". c white",
/* pixels */
"................................",
".                              .",
". ............................ .",
". ............................ .",
". ............................ .",
". ............................ .",
". ......               ....... .",
". ......               ....... .",
". ......  .................... .",
". ......  .................... .",
". ......  .................... .",
". ......  .................... .",
". ......  .................... .",
". ......  .................... .",
". ......           ........... .",
". ......             ......... .",
". ................    ........ .",
". ..................   ....... .",
". ...................  ....... .",
". ....................  ...... .",
". ....................  ...... .",
". ....................  ...... .",
". ....................  ...... .",
". ....................  ...... .",
". ...................  ....... .",
". ..................   ....... .",
". .......    .....    ........ .",
". ........           ......... .",
". ..........       ........... .",
". ............................ .",
".                              .",
"................................"
};
