/* XPM */
static char *_e9cd420cbd64e0ad32a422a999e73056xS1bUCcX4C2HZK0[] = {
/* columns rows colors chars-per-pixel */
"32 32 2 1 ",
"  c black",
". c white",
/* pixels */
"................................",
".                              .",
". ............................ .",
". ........             ....... .",
". .......              ....... .",
". .......  ................... .",
". ......   ................... .",
". ......  .................... .",
". ......  .................... .",
". ......  .................... .",
". ......  .................... .",
". ......  .................... .",
". ......  .................... .",
". ......  .................... .",
". ......  ..       ........... .",
". ......             ......... .",
". ......     .....    ........ .",
". ......   .........   ....... .",
". ......  ...........  ....... .",
". .....  .............  ...... .",
". .....  .............  ...... .",
". .....  .............  ...... .",
". .....  .............  ...... .",
". .....  .............  ...... .",
". ......  ...........  ....... .",
". ......   .........   ....... .",
". .......    .....    ........ .",
". ........           ......... .",
". ..........       ........... .",
". ............................ .",
".                              .",
"................................"
};
