/* XPM */
static char *_d704e4854244b80c6d97f4c38d0b7f0wusGXoXxsx9qaiRs[] = {
/* columns rows colors chars-per-pixel */
"32 32 2 1 ",
"  c black",
". c white",
/* pixels */
"................................",
".                              .",
". ............................ .",
". ............................ .",
". ....                   ..... .",
". ....                   ..... .",
". .....................  ..... .",
". ....................   ..... .",
". ....................  ...... .",
". ...................   ...... .",
". ...................  ....... .",
". ..................   ....... .",
". ..................  ........ .",
". .................   ........ .",
". .................  ......... .",
". ................   ......... .",
". ...............   .......... .",
". ...............  ........... .",
". ..............   ........... .",
". ..............  ............ .",
". .............   ............ .",
". .............  ............. .",
". ............   ............. .",
". ............  .............. .",
". ...........   .............. .",
". ...........  ............... .",
". ..........   ............... .",
". ..........  ................ .",
". ............................ .",
". ............................ .",
".                              .",
"................................"
};
