/* XPM */
static char *bf39f911ddaa4fc6fb137c575e945128CZKb0YMAyP7H60c8[] = {
/* columns rows colors chars-per-pixel */
"32 32 2 1 ",
"  c black",
". c white",
/* pixels */
"................................",
".                              .",
". ............................ .",
". ...........      ........... .",
". .........          ......... .",
". ........   ......   ........ .",
". .......  ..........  ....... .",
". ......   ..........   ...... .",
". ......  ............  ...... .",
". ......  ............  ...... .",
". ......  ............  ...... .",
". ......  ............  ...... .",
". ......   ..........   ...... .",
". .......  ..........  ....... .",
". ........   ......   ........ .",
". .........          ......... .",
". ...........      ........... .",
". ..........        .......... .",
". ........            ........ .",
". .......    ......    ....... .",
". .......  ..........  ....... .",
". ......  ............  ...... .",
". ......  ............  ...... .",
". ......  ............  ...... .",
". ......  ............  ...... .",
". .......  ..........  ....... .",
". .......    ......    ....... .",
". ........            ........ .",
". ...........      ........... .",
". ............................ .",
".                              .",
"................................"
};
