/* XPM */
static char *_f515647e0b5431cab88aabc69ac76ef3FUjWbjB82Ia6v0S[] = {
/* columns rows colors chars-per-pixel */
"32 32 2 1 ",
"  c black",
". c white",
/* pixels */
"................................",
".                              .",
". ............................ .",
". ...........      ........... .",
". .........          ......... .",
". ........   ......   ........ .",
". .......  ..........  ....... .",
". ......   ..........   ...... .",
". ......  ............  ...... .",
". ......  ............  ...... .",
". ......  ............  ...... .",
". ......  ............  ...... .",
". ......   ..........   ...... .",
". .......  ..........   ...... .",
". ........   ......     ...... .",
". .........          .  ...... .",
". ...........      ...  ...... .",
". ....................  ...... .",
". ....................  ...... .",
". ...................   ...... .",
". ...................   ...... .",
". ...................  ....... .",
". ...................  ....... .",
". ...................  ....... .",
". .......  .........   ....... .",
". .......  .........   ....... .",
". .......      ....   ........ .",
". ........            ........ .",
". ...........        ......... .",
". ............................ .",
".                              .",
"................................"
};
