/* XPM */
static char * Catto1_xpm[] = {
"64 64 11 1",
" 	c #097E09",
".	c #000000",
"+	c #D8D8D8",
"@	c #FFFFFF",
"#	c #C9B0BE",
"$	c #A999A2",
"%	c #C9C1C1",
"&	c #16C0D9",
"*	c #8B7A84",
"=	c #A79E9E",
"-	c #065606",
"                                                                ",
"                                                                ",
"                                                                ",
"                                                                ",
"                                                                ",
"                                                                ",
"                                                                ",
"                                                                ",
"                                                                ",
"                                                                ",
"                                                                ",
"                                                                ",
"                                                                ",
"                                                                ",
"                                                                ",
"                                                                ",
"                                                                ",
"                                                                ",
"                                                                ",
"                                                                ",
"                                                                ",
"          .                                                     ",
"          .                                                     ",
"          .                ...      ...                         ",
"        .  .    ....       ...      ...                         ",
"         . .  ..+..+..   .............           ...            ",
"          .. .@.+#$.++.  .++++++++++++.         .++%.           ",
"           . .&.+##*.+. .++++++++++++++.       .%+..            ",
"            .@@.+$*.+++.+++++++++++++++.       .%.              ",
"            ..+++..++++.++++++%%+++++%%%....  .+%.              ",
"            ...++++++++.++%%%+++%++%+%%=.+++..++.               ",
"            ..+++..++++.+++++%%++%++%%%=...+++++.               ",
"           ..@@.+##.+++.+++++++++%%%%%=.   .%+%.                ",
"          .. .&.+#$*.+. .%%%%%%%%%%%%==.    ...                 ",
"         . . .@.+$*.++.  .============.                         ",
"        .  .  ..+..+..-- .............                          ",
"          .     ....----...      ...    --         -            ",
"          .     ----   -...      ...   ---         -            ",
"          .    ---      --  -          ------    - - -          ",
"             ---         -- ----------------   --     -         ",
"           -----          -------------    ----     -           ",
"                            ---    --               -           ",
"                                                    --          ",
"                                                                ",
"                                                                ",
"                                                                ",
"                                                                ",
"                                                                ",
"                                                                ",
"                                                                ",
"                                                                ",
"                                                                ",
"                                                                ",
"                                                                ",
"                                                                ",
"                                                                ",
"                                                                ",
"                                                                ",
"                                                                ",
"                                                                ",
"                                                                ",
"                                                                ",
"                                                                ",
"                                                                "};
