/* XPM */
static char * wall5_xpm[] = {
"64 64 231 2",
"  	c #472D3C",
". 	c #462C3B",
"+ 	c #452A3A",
"@ 	c #442839",
"# 	c #432538",
"$ 	c #422437",
"% 	c #412337",
"& 	c #472E3C",
"* 	c #49303D",
"= 	c #4B333F",
"- 	c #4D3642",
"; 	c #4F3943",
"> 	c #503A44",
", 	c #513B45",
"' 	c #472C3C",
") 	c #4F3843",
"! 	c #58454C",
"~ 	c #615054",
"{ 	c #68585B",
"] 	c #6C5D5E",
"^ 	c #6E5F60",
"/ 	c #68585A",
"( 	c #57444B",
"_ 	c #4E3742",
": 	c #695A5C",
"< 	c #7A6D6B",
"[ 	c #867B76",
"} 	c #8D827D",
"| 	c #918580",
"1 	c #867A76",
"2 	c #796C6A",
"3 	c #67585A",
"4 	c #544048",
"5 	c #3C1932",
"6 	c #A1978F",
"7 	c #AAA097",
"8 	c #AEA49A",
"9 	c #A1968E",
"0 	c #90847F",
"a 	c #786B69",
"b 	c #5E4C51",
"c 	c #482E3D",
"d 	c #3A112F",
"e 	c #AEA59A",
"f 	c #B4ABA0",
"g 	c #BFB6A9",
"h 	c #C4BAAE",
"i 	c #BFB6AA",
"j 	c #B5ABA0",
"k 	c #A29890",
"l 	c #897E79",
"m 	c #6D5E5F",
"n 	c #56434A",
"o 	c #482F3D",
"p 	c #BFB5A9",
"q 	c #CAC1B3",
"r 	c #CFC6B8",
"s 	c #CAC1B4",
"t 	c #C1B8AB",
"u 	c #B0A69C",
"v 	c #9A8F88",
"w 	c #837673",
"x 	c #716363",
"y 	c #503B45",
"z 	c #6D5F60",
"A 	c #ADA399",
"B 	c #C2B9AD",
"C 	c #CEC5B7",
"D 	c #D3CABB",
"E 	c #C8BFB1",
"F 	c #BBB2A6",
"G 	c #ABA198",
"H 	c #9C918A",
"I 	c #918680",
"J 	c #8C807B",
"K 	c #D2C9BB",
"L 	c #D0C7B9",
"M 	c #CBC2B5",
"N 	c #C4BBAE",
"O 	c #BBB1A6",
"P 	c #B3A99E",
"Q 	c #ADA39A",
"R 	c #ABA197",
"S 	c #D0C7B8",
"T 	c #D2C9BA",
"U 	c #8F847E",
"V 	c #ACA299",
"W 	c #C1B8AC",
"X 	c #CDC4B6",
"Y 	c #D1C8BA",
"Z 	c #C7BDB0",
"` 	c #C3BAAE",
" .	c #C2B8AC",
"..	c #C1B7AB",
"+.	c #D1C8B9",
"@.	c #CDC3B6",
"#.	c #D0C8B9",
"$.	c #CCC3B6",
"%.	c #B4AAA0",
"&.	c #BEB5A9",
"*.	c #C2B9AC",
"=.	c #4D3641",
"-.	c #604F53",
";.	c #9F958D",
">.	c #A89E95",
",.	c #4B323F",
"'.	c #68595B",
").	c #847875",
"!.	c #8B7F7B",
"~.	c #8E827D",
"{.	c #8D817C",
"].	c #462B3B",
"^.	c #49303E",
"/.	c #5B484E",
"(.	c #655558",
"_.	c #726463",
":.	c #736565",
"<.	c #736564",
"[.	c #5B494E",
"}.	c #726464",
"|.	c #746665",
"1.	c #6A5A5C",
"2.	c #877B76",
"3.	c #8D827C",
"4.	c #8E837E",
"5.	c #8E837D",
"6.	c #8F837E",
"7.	c #8B807B",
"8.	c #857875",
"9.	c #90857F",
"0.	c #A1978E",
"a.	c #AAA096",
"b.	c #ACA298",
"c.	c #ACA399",
"d.	c #432638",
"e.	c #67575A",
"f.	c #9E948C",
"g.	c #B2A89D",
"h.	c #BCB3A7",
"i.	c #C0B7AB",
"j.	c #C0B6AA",
"k.	c #675759",
"l.	c #847874",
"m.	c #B2A89E",
"n.	c #C5BCAF",
"o.	c #C9C0B2",
"p.	c #C7BEB1",
"q.	c #C8BFB2",
"r.	c #C8BEB1",
"s.	c #604F54",
"t.	c #796B6A",
"u.	c #B1A79D",
"v.	c #BDB4A8",
"w.	c #C6BDB0",
"x.	c #CBC2B4",
"y.	c #C5BBAF",
"z.	c #C9C0B3",
"A.	c #C3B9AD",
"B.	c #AFA59B",
"C.	c #928680",
"D.	c #6E6060",
"E.	c #786B6A",
"F.	c #8A7E79",
"G.	c #9B9089",
"H.	c #BDB3A8",
"I.	c #AFA69B",
"J.	c #928781",
"K.	c #4F3A44",
"L.	c #58444B",
"M.	c #635256",
"N.	c #9F948C",
"O.	c #B3AA9F",
"P.	c #9D928B",
"Q.	c #8B7F7A",
"R.	c #9D938B",
"S.	c #BDB3A7",
"T.	c #635356",
"U.	c #837773",
"V.	c #998E87",
"W.	c #B6ACA1",
"X.	c #B5ACA1",
"Y.	c #A99F96",
"Z.	c #978C85",
"`.	c #877B77",
" +	c #978D86",
".+	c #B2A99E",
"++	c #887C78",
"@+	c #69595B",
"#+	c #796C6B",
"$+	c #938881",
"%+	c #A39990",
"&+	c #A79D94",
"*+	c #A2988F",
"=+	c #958A84",
"-+	c #A39890",
";+	c #A69B93",
">+	c #A0968E",
",+	c #7B6E6C",
"'+	c #A59B92",
")+	c #9B9189",
"!+	c #A2978F",
"~+	c #938781",
"{+	c #887C77",
"]+	c #A0958D",
"^+	c #B1A89D",
"/+	c #938882",
"(+	c #827672",
"_+	c #948983",
":+	c #7E716F",
"<+	c #5E4D52",
"[+	c #554149",
"}+	c #4E3843",
"|+	c #AFA69C",
"1+	c #55424A",
"2+	c #49313E",
"3+	c #462C3C",
"4+	c #442739",
"5+	c #625155",
"6+	c #7D706E",
"7+	c #A0968D",
"8+	c #5F4E52",
"9+	c #402135",
"0+	c #412336",
"a+	c #452B3B",
"b+	c #4B3340",
"c+	c #59464C",
"d+	c #7C6F6D",
"e+	c #6A5B5C",
"f+	c #422538",
"g+	c #45293A",
"h+	c #432739",
"    . + @ # $ % % $ # @ + .         . + @ # $ % % $ # @ + .         . + @ # $ % % $ # @ + .         . + @ # $ % % $ # @ + .     ",
"  & * = - ; > , , > ; - = *   ' '   * = - ; > , , > ; - = *   ' '   * = - ; > , , > ; - = *   ' '   * = - ; > , , > ; - = * &   ",
". * ) ! ~ { ] ^ ^ ] / ~ ( _ & @ @ & _ ( ~ / ] ^ ^ ] / ~ ( _ & @ @ & _ ( ~ / ] ^ ^ ] / ~ ( _ & @ @ & _ ( ~ / ] ^ ^ ] { ~ ! ) * . ",
"+ = ! : < [ } | | } 1 2 3 4 + 5 5 + 4 3 2 1 } | | } 1 2 3 4 + 5 5 + 4 3 2 1 } | | } 1 2 3 4 + 5 5 + 4 3 2 1 } | | } [ < : ! = + ",
"@ - ~ < | 6 7 8 8 7 9 0 a b c d d c b a 0 9 7 e e 7 9 0 a b c d d c b a 0 9 7 e e 7 9 0 a b c d d c b a 0 9 7 8 8 7 6 | < ~ - @ ",
"# ; { [ 6 f g h h i j k l m n o o n m l k j i h h i j k l m n o o n m l k j i h h i j k l m n o o n m l k j i h h g f 6 [ { ; # ",
"$ > ] } 7 p q r r s t u v w x / / x w v u t s r r s t u v w x / / x w v u t s r r s t u v w x / / x w v u t s r r q p 7 } ] > $ ",
"$ y z 0 A B C D D r E F G H I J J I H G F E r K K r E F G H I J J I H G F E r K K r E F G H I J J I H G F E r D D C B A 0 z y $ ",
"$ y ^ 0 A B C K K L M N O P Q R R Q P O N M S T T S M N O P Q R R Q P O N M S T T S M N O P Q R R Q P O N M L K K C B A 0 ^ y $ ",
"$ y m U V W X Y Y r X s Z `  ..... .` Z s X r L L r X s Z `  ..... .` Z s X r L L r X s Z `  ..... .` Z s X r Y Y X W V U m y $ ",
"$ y m U V W X +.Y r r C C X X @.@.X X C C r r r r r r C C X X @.@.X X C C r r r r r r C C X X @.@.X X C C r r Y +.X W V U m y $ ",
"$ y ^ 0 A B C K K Y Y Y Y T T K K T T Y Y Y #.L L #.Y Y Y T T K K T T Y Y Y #.L L #.Y Y Y T T K K T T Y Y Y Y K K C B A 0 z y $ ",
"$ y z 0 A B C T K +.+.Y Y T T K K T T Y Y +.L L L L +.Y Y T T K K T T Y Y +.L L L L +.Y Y T T K K T T Y Y +.+.K T C B A 0 z y $ ",
"$ > ] } 7 p q C C X $.$.@.X X X X X X @.$.$.$.$.$.$.$.$.@.X X X X X X @.$.$.$.$.$.$.$.$.@.X X X X X X @.$.$.X C C q p 7 } ] > $ ",
"# ; / 1 9 %.&.*.*.t t t t t t t t t t t t t t t t t t t t t t t t t t t t t t t t t t t t t t t t t t t t t t *.*.&.%.9 1 / ; # ",
"@ =.-.2 U ;.>.G G 7 7 7 7 7 7 7 7 7 7 7 7 7 7 7 7 7 7 7 7 7 7 7 7 7 7 7 7 7 7 7 7 7 7 7 7 7 7 7 7 7 7 7 7 7 7 G G >.;.U 2 -.=.@ ",
"+ ,.( '.a ).!.} ~.{.{.{.{.{.{.{.{.{.{.{.{.{.{.{.{.{.{.{.{.{.{.{.{.{.{.{.{.{.{.{.{.{.{.{.{.{.{.{.{.{.{.{.{.{.{.~.} !.).a '.( ,.+ ",
"].^.> /.(.m _.:.:.:.<.<.<.<.<.<.<.<.<.<.<.<.<.<.<.<.<.<.<.<.<.<.<.<.<.<.<.<.<.<.<.<.<.<.<.<.<.<.<.<.<.<.<.<.:.:.:._.m (./.> ^.].",
"].^.y [.(.^ }.|.|.:.:.:.:.:.:.:.:.:.:.:.:.:.:.:.:.:.:.:.:.:.:.:.:.:.:.:.:.:.:.:.:.:.:.:.:.:.:.:.:.:.:.:.:.:.:.|.|.}.m (./.> ^.].",
"+ = ! 1.< 2.3.U 4.} 3.~.5.6.6.5.~.3.3.~.5.6.6.5.~.3.3.~.5.6.6.5.~.3.3.~.5.6.6.5.~.3.3.~.5.6.6.5.~.3.3.~.5.6.6.U 4.7.8.a '.( ,.+ ",
"@ - ~ < 9.0.a.V b.R R R G b.b.G R R R R G b.b.G R R R R G b.b.G R R R R G b.b.G R R R R G b.b.G R R R R G b.b.c.b.>.;.U 2 -.=.@ ",
"d.) e.).f.g.h.i.t ..i.j.i &.&.i j.i.i.j.i &.&.i j.i.i.j.i &.&.i j.i.i.j.i &.&.i j.i.i.j.i &.&.i j.i.i.j.i &.p i.t &.%.0.1 / ; # ",
"d.) k.l.f.m.&.n.o.s q p.h t t h p.q q p.h t t h p.q q p.h t t h p.q q p.h t t h p.q q p.h t t h p.q q p.h t t n.q.r.&.7 ~.] > $ ",
"@ - s.t.0 k u.v.w.M x.y.F f f F y.x.x.y.F f f F y.x.x.y.F f f F y.x.x.y.F f f F y.x.x.y.F f f F y.x.x.y.F f f h.n.z.A.B.C.D., % ",
"+ = ( 3 E.F.G.8 &.p.p.h.V ;.;.V h.p.p.h.V ;.;.V h.p.p.h.V ;.;.V h.p.p.h.V ;.;.V h.p.p.h.V ;.;.V h.p.p.h.V ;.;.A H.w.*.I.J.D., % ",
"].^.K.L.M.}.1 N.O.j.i m.P.Q.Q.P.m.i i m.P.Q.Q.P.m.i i m.P.Q.Q.P.m.i i m.P.Q.Q.P.m.i i m.P.Q.Q.P.m.i i m.P.Q.Q.R.m.p S.b.U m > $ ",
"].^.> ! T.x U.V.R W.X.Y.Z.`.`.Z.Y.X.X.Y.Z.`.`.Z.Y.X.X.Y.Z.`.`.Z.Y.X.X.Y.Z.`.`.Z.Y.X.X.Y.Z.`.`.Z.Y.X.X.Y.Z.`.`. +a.j .+k ++'.; # ",
"+ = L.@+#+++$+H %+&+&+*+G.=+=+G.*+&+&+*+G.=+=+G.*+&+&+*+G.=+=+G.*+&+&+*+G.=+=+G.*+&+&+*+G.=+=+G.*+&+&+*+G.=+=+H -+;+>+I ,+~ - @ ",
"@ - ~ ,+I >+'+k )+=+=+G.!+&+&+!+G.=+=+G.!+&+&+!+G.=+=+G.!+&+&+!+G.=+=+G.!+&+&+!+G.=+=+G.!+&+&+!+G.=+=+G.!+&+&+%+H ~+{+2 @+( = + ",
"d.) 3 1 ]+I.^+;+/+(+(+J.'+m.m.'+J.(+(+J.'+m.m.'+J.(+(+J.'+m.m.'+J.(+(+J.'+m.m.'+J.(+(+J.'+m.m.'+J.(+(+J.'+m.m.&+_+:+] <+[+}+* . ",
"d.) 3 `.>+B.I.>+++x x ++>+|+|+>+++x x ++>+|+|+>+++x x ++>+|+|+>+++x x ++>+|+|+>+++x x ++>+|+|+>+++x x ++>+|+u !+F.m 1+2+3+c &   ",
"4+- 5+6+/+>+]+I 2 T.T.#+I ]+]+I #+T.T.#+I ]+]+I #+T.T.#+I ]+]+I #+T.T.#+I ]+]+I #+T.T.#+I ]+]+I #+T.T.#+I ]+7+J.,+8+2+9+0+a+    ",
"+ b+c+] 6+`.1 ,+@+! ! @+,+1 1 ,+@+! ! @+,+1 1 ,+@+! ! @+,+1 1 ,+@+! ! @+,+1 1 ,+@+! ! @+,+1 1 ,+@+! ! @+,+1 1 d+e+[+3+0+f+].    ",
". ^.; c+5+3 3 ~ L.> > L.~ 3 3 ~ L.> > L.~ 3 3 ~ L.> > L.~ 3 3 ~ L.> > L.~ 3 3 ~ L.> > L.~ 3 3 ~ L.> > L.~ 3 3 5+! }+c a+].'     ",
"  & ^.b+- ) ) - = ^.^.= - ) ) - = ^.^.= - ) ) - = ^.^.= - ) ) - = ^.^.= - ) ) - = ^.^.= - ) ) - = ^.^.= - ) ) - b+^.&           ",
"    . + 4+d.d.@ + ].].+ @ d.d.@ + ].].+ @ d.d.@ + ].].+ @ d.d.@ + ].].+ @ d.d.@ + ].].+ @ d.d.@ + ].].+ @ d.d.4++ .             ",
"    . g+h+f+f+h+g+].].g+h+f+f+h+g+].].g+h+f+f+h+g+].].g+h+f+f+h+g+].].g+h+f+f+h+g+].].g+h+f+f+h+g+].].g+h+f+f+h+g+.             ",
"      ' . . . . '     ' . . . . '     ' . . . . '     ' . . . . '     ' . . . . '     ' . . . . '     ' . . . . '               ",
"                                                                                                                                ",
"                                                                                                                                ",
"                                                                                                                                ",
"                                                                                                                                ",
"                                                                                                                                ",
"                                                                                                                                ",
"                                                                                                                                ",
"                                                                                                                                ",
"                                                                                                                                ",
"                                                                                                                                ",
"                                                                                                                                ",
"                                                                                                                                ",
"                                                                                                                                ",
"                                                                                                                                ",
"                                                                                                                                ",
"                                                                                                                                ",
"                                                                                                                                ",
"                                                                                                                                ",
"                                                                                                                                ",
"                                                                                                                                ",
"                                                                                                                                ",
"                                                                                                                                ",
"                                                                                                                                ",
"                                                                                                                                ",
"                                                                                                                                ",
"                                                                                                                                "};
