/* XPM */
static char * tronc3_xpm[] = {
"64 64 3 1",
" 	c #097E09",
".	c #6D3111",
"+	c #833F1A",
"                                                                ",
"                                                                ",
"                                                                ",
"                                                                ",
"                                                                ",
"                                                                ",
"                                                                ",
"                                                                ",
"                                                                ",
"                                                                ",
"                                                                ",
"                                                                ",
"                                                                ",
"                                ........                        ",
"                             ...++++++++...                     ",
"                           ..++++++++++++++..                   ",
"                         ..++++++++++++++++++..                 ",
"                        .++++++++++++++++++++++.                ",
"                       .++++++++++++++++++++++++.               ",
"                      .++++++++++++++++++++++++++.              ",
"                     .++++++++++++++++++++++++++++.             ",
"                     .++++++++++++++++++++++++++++.             ",
"                    .++++++++++++++++++++++++++++++.            ",
"                   .++++++++++++++++++++++++++++++++.           ",
"                   .+++++++++............+++++++++++.           ",
"                   .++++++++................++++++++.           ",
"                  .++++++++....++++++++.......+++++++.          ",
"                  .+++++++....+++++++++++++....++++++..         ",
"                  .+++++++...+++++++++++++++...++++++...        ",
"               ...+++++++...+++++++++++++++++..++++++...        ",
"               ...+++++++...+++++++++++++++++..+++++++..        ",
"              ....+++++++..+++++.....++++++++..++++++...        ",
"              ....+++++++..+++++.......++++++...+++++...        ",
"             .....+++++++..+++++.......++++++...+++++....       ",
"           .......+++++++..+++++..+++..++++++...+++++.....      ",
"           .......+++++++..+++++..+++..++++++...++++++.....     ",
"         .........+++++++..+++++..++...++++++...+++++.......    ",
"         .........+++++++..+++++.......+++++....+++++........   ",
"        ...........++++++..++++++.....++++++...++++++........   ",
"        ...........++++++...+++++++++++++++....++++++.........  ",
"        ...........++++++...+++++++++++++++....++++++..... .... ",
"        .... .......++++++...++++++++++++.....++++++......  ... ",
"       ....  .......++++++....++++++++++.....+++++++.......  ...",
"       ....   .......++++++....++++++++.....++++++++.......   ..",
"       ...    .......+++++++..............+++++++++........    .",
"       ..     ........+++++++............+++++++++..........    ",
"       ..     ........++++++++++...+++++++++++++++..........    ",
"       ..     .........++++++++++++++++++++++++++...........    ",
"              ..... ....++++++++++++++++++++++..............    ",
"              .....  ....++++++++++++++++++++...............    ",
"              .....   .....++++++++++++++++..................   ",
"              .....    ......+++++++++++............    .....   ",
"              .....    .........++++...............     ......  ",
"               ....     ...................  ......      .....  ",
"               ....       ...............    ......      .....  ",
"              .....       ...........        ......       ....  ",
"             .....         ......            ......       ....  ",
"            ......         .......           .....        ....  ",
"            ....            .......           ....        ....  ",
"            ..               ......           ....         ...  ",
"                             .......          ....         ..   ",
"                               ......         ...          ..   ",
"                                ......        ...               ",
"                                 .....       ....               "};
