/* XPM */
static char *_54f04a1f0e04cf4cfe46ac43344e7adkARyKaC7DMOfMiNE[] = {
/* columns rows colors chars-per-pixel */
"64 64 9 1 ",
"  c black",
". c #097E09",
"X c #8B7A84",
"o c #16C0D9",
"O c #A999A2",
"+ c #C9B0BE",
"@ c #C9C1C1",
"# c #D8D8D8",
"$ c white",
/* pixels */
"................................................................",
"................................................................",
"................................................................",
"......................    ......................................",
"......................... ......................................",
"........................  ......................................",
".......................  .......................................",
"....................... ........................................",
"......................       ...................................",
"................................     ...........................",
"................................... ............................",
".................................  .............................",
"................................. ..............................",
"................................     ...........................",
"................................................................",
".......................................   ......................",
".................................. ...... ... ..................",
"................................... .... ... ...................",
"...............................   .. ..   . ..   ...............",
"..................................    ....    ..................",
".....................................     ......................",
"...................................  $   $  ....................",
".................................. $o$# #$o$ ...................",
"..................................    ###    ...................",
"..................................########### ..................",
"............................       O++ # O++  ..................",
".........................   #####  XO+ # X+O  ..................",
".......................   ####### # X ### X # ..................",
"......................  ########## # ##### # ...................",
".....................  ########### ######### ...................",
"..................... ###@#########  #####  ....................",
"..................... ###############     # ....................",
"..................... ##################### ....................",
"..................... #######@############## ...................",
"..................... ###################### ...................",
"..................... ###################### ...................",
"..................... #######@#####@######## ...................",
"..................... ###@################## ...................",
".....................  ####################  ...................",
"...................... #################### ....................",
"......................  ########@######### .....................",
".......................  ################ ......................",
"........................  #############  .......................",
"..........................   #######    ........................",
".............................        ...........................",
"................................................................",
"................................................................",
"................................................................",
"................................................................",
"................................................................",
"................................................................",
"................................................................",
"................................................................",
"................................................................",
"................................................................",
"................................................................",
"................................................................",
"................................................................",
"................................................................",
"................................................................",
"................................................................",
"................................................................",
"................................................................",
"................................................................"
};
