/* XPM */
static char * tronc2_xpm[] = {
"64 64 5 1",
" 	c #097E09",
".	c #6D3111",
"+	c #833F1A",
"@	c #894B2A",
"#	c #000000",
"                                                                ",
"                                                                ",
"                                                                ",
"                                                                ",
"                                                                ",
"                                                                ",
"                                                                ",
"                                                                ",
"                                                                ",
"                          .............                         ",
"                         .................                      ",
"                       ......+++++++++......                    ",
"                      ...+++++++++++++++++...                   ",
"                    ...+++++++++++++++++++++...                 ",
"                    ..++++++++........++++++++..                ",
"                  ..+++++++...@@@@@@@@...++++++..               ",
"                ....++++++.@@@@@@@@@@@@@@.++++++..              ",
"               ....+++++..@@@@@@@@@@@@@@@@..+++++..             ",
"               ...+++++.@@@@@@@@@@@@@@@@@@@@.+++++...           ",
"              ...+++++.@@@@@@@@@@@@@@@@@@@@@@.+++++..##         ",
"             ...++++++.@@@@@@@@@@.....@@@@@@@.+++++...##        ",
"             ...+++++.@@@@@@@@@..@@@@@.@@@@@@@.+++++...##.      ",
"            ...++++++.@@@@@@@@.@@@@@@@@.@@@@@@.+++++....###     ",
"            ..++++++.@@@@@@@@@.@@@@@@@@.@@@@@@@.++++......##    ",
"            ..++++++.@@@@@@@@.@@@@@@@@@.@@@@@@@.+++++........   ",
"           ..+++++++.@@@@@@@@.@@@@@@@@@.@@@@@@@.+++++.........  ",
"           ..+++++++.@@@@@@@@.@@..@@@@.@@@@@@@@.+++++.......... ",
"           ..+++++++.@@@@@@@..@...@@@@.@@@@@@@@.+++++##... .....",
"          ...+++++++.@@@@@@@.@@@@@@@@@.@@@@@@@@.+++++..##.. ....",
"          ...+++++++.@@@@@@@.@@@@@@@@@.@@@@@@@@.+++++...###  ...",
"          ...+++++++.@@@@@@@..@@@@@@@.@@@@@@@@@.++++........  ..",
"          #..++++++++.@@@@@@@..@@@@@.@@@@@@@@@.+++++#.......    ",
"          #..++++++++.@@@@@@@@@.....@@@@@@@@@@.+++++.#.......   ",
"          #...++++++++.@@@@@@@@@@@@@@@@@@@@@@.++++++.##.......  ",
"         .#...++++++++.@@@@@@@@@@@@@@@@@@@@@@.++++++..#.......  ",
"         .#...+++++++++.@@@@@@@@@@@@@@@@@@@@.+++++++...#....... ",
"         #.....+++++++++..@@@@@@@@@@@@@@@@..+++++++....#. ...   ",
"        .#.....+++++++++++.@@@@@@@@@@@@@@.+++++++++....#        ",
"        .#......+++++++++++...@@@@@@@@...+++++++++.....#        ",
"        #........+++++++++++++........++++++++++.......#        ",
"        #........+++++++++++++++++++++++++++++++.......##       ",
"        #.......##++++++++++++++++++++++++++++++#.......        ",
"       .........#.#.++++++++++++++++++++++++++..#.......        ",
"       .........#.#..++++++++++++++++++++++++...#........       ",
"      .........#..#....++++++++++++++++++++.....#........       ",
"      ........#...#......++++++++++++++++..#.....#......        ",
"      .......##...#.........++++++++++.....#......#.....        ",
"      .....##.....#.......#...........#.....#.....#......       ",
"     .....#...     #.....#............#.....#..  ..#.....       ",
"     .......       ......#............#.....#.       ....       ",
"    ......          .....#      ......#.....#        ....       ",
"   ....             .....#         .### ...##         ...       ",
"  ....              ......             .....           ..       ",
"  ...               .....              .....           ...      ",
"                   ......             ......           ...      ",
"                   .....             .......            ..      ",
"                   .....           ......               ..      ",
"                  .....          .......                 ..     ",
"                  .....       .........                  ..     ",
"                  ....       .........                    .     ",
"                  ....      ........                       .    ",
"                 .....    ........                              ",
"                 ....                                           ",
"                 ..                                             "};
