/* XPM */
static char *_4cf8d81be7f4c4be7377df267b395b01mmnx8zSKcrxBNnJ[] = {
/* columns rows colors chars-per-pixel */
"64 64 6 1 ",
"  c #523515",
". c #097E09",
"X c #764E20",
"o c #4F4D4B",
"O c #767676",
"+ c #FFCA00",
/* pixels */
"................................................................",
"................................................................",
"................................................................",
"................................................................",
"................................................................",
"..................                                  ............",
".................. XXXXXXXXXXXXXXXXXXXXXXXXXXXX   .. ...........",
".................. XXXXXXXXXXXXXXXXXXXXXXXXXXXX .. . ...........",
".................. XXX                       XX ...  ...........",
".................. XXX XXXXXXXXXXXXXXXXXXXXX XX ....+...........",
".................. XXX XXXXXXXXXXXXXXXXXXXXX XX ...+++..........",
".................. XXX XXXXXXXXXXXXXXXXXXXXX XX ...+++..........",
".................. XXX XXXXXXXXXXXXXXXXXXXXX XX ...+++..........",
".................. XXX XXX               XXX XX ...+++..........",
".................. XXX XXX XXXXXXXXXXXXX XXX XX ...+++..........",
".................. XXX XXX XXXXXXXXXXXXX XXX XX ...+++..........",
".................. XXX XXX XXXXXXXXXXXXX XXX XX ...+++..........",
".................. XXX XXX XXXXXXXXXXXXX XXX XX ...+++..........",
".................. XXX XXX XXXXXXXXXXXXX XXX XX ....+...........",
".................. XXX XXX XXXXXXXXXXXXX XXX XX ................",
".................. XXX XXX XXXXXXXXXXXXX XXX XX ................",
".................. XXX XXX XXXXXXXXXXXXX XXX XX ................",
".................. XXX XXX XXXXXXXXXXXXX XXX XX ................",
".................. XXX XXX XXXXXXXXXXXXX XXX XX ................",
".................. XXX XXX XXXXXXXXXXXXX XXX XX ................",
".................. XXX XXX XXXXXXXXXXXXX XXX XX ................",
".................. XXX XXX XXXXXXXXXXXXX XXX XX ................",
".................. XXX XXX XXXXXXXXXXXXX XXX XX ................",
".................. XXX XXX XXXXXXXXXXXXX XXX XX ................",
".................. XXX XXX XXXXXXXXXXXXX XXX XX ................",
".................. XXX XXX XXXXXXXXXXXXX XXX XX ................",
".................. XXX XXX XXXXXXXXXXXXX X+X XX ................",
".................. XXX XXX XXXXXXXXXXXXX +++ XX ................",
".................. XXX XXX XXXXXXXXXXXXX X+X XX ................",
".................. XXX XXX XXXXXXXXXXXXX XXX XX ................",
".................. XXX XXX XXXXXXXXXXXXX XXX XX ................",
".................. XXX XXX XXXXXXXXXXXXX XXX XX ................",
".................. XXX XXX XXXXXXXXXXXXX XXX XX ................",
".................. XXX XXX XXXXXXXXXXXXX XXX XX ................",
".................. XXX XXX XXXXXXXXXXXXX XXX XX ................",
".................. XXX XXX XXXXXXXXXXXXX XXX XX ................",
".................. XXX XXX XXXXXXXXXXXXX XXX XX ................",
".................. XXX XXX XXXXXXXXXXXXX XXX XX ................",
".................. XXX XXX XXXXXXXXXXXXX XXX XX ................",
".................. XXX XXX XXXXXXXXXXXXX XXX XX ................",
".................. XXX XXX XXXXXXXXXXXXX XXX XX ................",
".................. XXX XXX XXXXXXXXXXXXX XXX XX ................",
".................. XXX XXX XXXXXXXXXXXXX XXX XX ................",
".................. XXX XXX XXXXXXXXXXXXX XXX XX ................",
".................. XXX XXX XXXXXXXXXXXXX XXX XX ................",
".................. XXX XXX               XXX XX ................",
".................. XXX XXXXXXXXXXXXXXXXXXXXX XX ................",
".................. XXX XXXXXXXXXXXXXXXXXXXXX XX ................",
".................. XXX XXXXX           XXXXX XX ................",
".................. XXX XXXXX OoooooooO XXXXX XX ................",
".................. XXX XXXXX OOOOOOOOO XXXXX XX ................",
".................. XXX XXXXX OOOOOOOOO XXXXX XX ................",
".................. XXX XXXXX OOOOOOOOO XXXXX XX ................",
".................. XXX XXXXX OOOOOOOOO XXXXX XX ................",
".................. XXX XXXXX OOOOOOOOO XXXXX XX ................",
".................. XXX       OOOOOOOOO       XX ................",
".................. XXXXXXXXX OOOOOOOOO XXXXXXXX ................",
".................. XXXXXXXXX OOOOOOOOO XXXXXXXX ................",
"..................                              ................"
};
