/* XPM */
static char *f98f1eb04cb342789a60904d14ad3ba2R9SciD8xHUSskbI2[] = {
/* columns rows colors chars-per-pixel */
"64 64 101 2 ",
"   c #28810C",
".  c #38C599",
"X  c #B79F9B",
"o  c #BC9B9F",
"O  c #A5A99C",
"+  c #AAAA9B",
"@  c #ADAA9E",
"#  c #BAAB9C",
"$  c #96AEA5",
"%  c #98ACA9",
"&  c #8BB2B4",
"*  c #A8ACA4",
"=  c #BBAAA1",
"-  c #D88F8F",
";  c #D6938E",
":  c #DB918F",
">  c #DB948E",
",  c #DC8F92",
"<  c #C49891",
"1  c #C6969C",
"2  c #C7979F",
"3  c #D39495",
"4  c #DB9190",
"5  c #D89192",
"6  c #DC9093",
"7  c #DA9295",
"8  c #D39398",
"9  c #E08D92",
"0  c #C0A89F",
"q  c #D7A691",
"w  c #DEA195",
"e  c #DCA295",
"r  c #D5A999",
"t  c #D5AA9E",
"y  c #DBA99B",
"u  c #DAAA9A",
"i  c #E6A68C",
"p  c #E7A58F",
"a  c #E8A28C",
"s  c #EBA48C",
"d  c #E9A48F",
"f  c #E8A58F",
"g  c #ECA48E",
"h  c #E8A888",
"j  c #E7A491",
"k  c #E6A790",
"l  c #E4A792",
"z  c #E5A693",
"x  c #E5A196",
"c  c #E7A797",
"v  c #EBA390",
"b  c #EBA590",
"n  c #E8A690",
"m  c #E9A493",
"M  c #E8A593",
"N  c #EAA394",
"B  c #EBA295",
"V  c #E9A397",
"C  c #EAA696",
"Z  c #E0A990",
"A  c #E6A298",
"S  c #E5A698",
"D  c #E0A89D",
"F  c #CCAFA3",
"G  c #C8AFA4",
"H  c #EBBBAB",
"J  c #E9BCAF",
"K  c #C2D2CB",
"L  c #E7D3C6",
"P  c #E5D4C6",
"I  c #E8D3C6",
"U  c #ECD0C7",
"Y  c #E7D3C8",
"T  c #E3D4C9",
"R  c #E6D4C8",
"E  c #E9D3C8",
"W  c #EAD3C9",
"Q  c #E8D5CA",
"!  c #EFE5D5",
"~  c #EFE4DA",
"^  c #F1E4D7",
"/  c #F1E3D8",
"(  c #F1E4D9",
")  c #F2E8DC",
"_  c #ECECEC",
"`  c #F8EBE8",
"'  c #EAF5ED",
"]  c #FFF5E7",
"[  c #F1F5EE",
"{  c #FFF7EB",
"}  c #FBF0EC",
"|  c #FFF7ED",
" . c #F9FBEB",
".. c #FFF8E9",
"X. c #FFFAE8",
"o. c #F8F8ED",
"O. c #F9FBEC",
"+. c #FDF8EC",
"@. c #FFF8ED",
"#. c #EDF8F0",
"$. c #FEF6F1",
/* pixels */
"                                                                                                                                ",
"                                                                                                                                ",
"                                                                                                                                ",
"                                                                                                                                ",
"                                                                                                                                ",
"                                                                                                                                ",
"                                                                                                                                ",
"                                                                                                                                ",
"                                                                                                                                ",
"                                                                                                                                ",
"                                                                                                                                ",
"                                                                                                                                ",
"                                                    5 5 5 5                                                                     ",
"                                                    5 ; 5 5     i p k d p #                                                     ",
"                                                    5 5 , 5     k M M M M 0                                                     ",
"                                                    5 8 3 5     e k M M M 0                                                     ",
"                                    F B k { | { | | {  .@.{ | | Z c p B M 0                                                     ",
"                                    G M M ..{ { ..@.{ { { { ..@.d k B k d =                                                     ",
"                                    [ ] ..@...@.@...$._ . o.@...] {  .                                                          ",
"                                    ' | ....@.....@.} . . | ..@.{ X.{                                                           ",
"                                    #.@...@...@.@...` . . | @...{ { |                                                           ",
"                                          ..@.....@.@...@.....@.....|                                                           ",
"                                          ....@.{ ..@...@...@...{ { {                                                           ",
"                                          o.o.o.] { { { { ....@.{ { |                                                           ",
"                                                P L L Y L { ....{ { |                                                           ",
"                                                P L Y Y L X...@.{ { {                                                           ",
"                                                ! ( ( ( ( { @.........                                                          ",
"                                                ....@.....@...@.....@.@.{                                                       ",
"                                                ........@...| @...@...@...K                                                     ",
"                                                c c r ..o.e c B ....@...@...{ |                                                 ",
"                                                N l u ..O.e k k | @...@.....{ |                                                 ",
"                                                s k y ..@.q k c  ...@...@.{ { {                                                 ",
"                                          { ..| @...@...@...@...{ { ..@...@...@.R L E                                           ",
"                                          | @.....@...@...@...@.@...@...@...@...R Y U                                           ",
"                                          { ..@.@...@...@...@.....@...@...@...@.R Y U                                           ",
"                                          { @.....@...@...@...@.@...@...@...@...R Y U                                           ",
"                                          | ..@.@...@...@...@...@...@.......@...R E E                                           ",
"                                          ..@.....@...@...@...@...@...@.@.) T T R E L 2 1 < t u                                 ",
"                                          ..@...@.@.@...@...@.@.@...{ ..@./ P R W R I 5 5 > M M                                 ",
"                                          @...o...@.@.@.@.@.@.| ..| | { { ~ Y Y R W P 5 4 4 d B $                               ",
"                                    X 7 - 6 7 9 Y E E E E E Y E M p k c p H P Y Y Y Y 5 6 6 6 4 A k a                           ",
"                                    o , 5 : 7 4 E Y Y Y Y Y Y Y p M M M M J I I Y Y P 5 , 4 4 4 j p p                           ",
"                                    o 5 : 5 5 - E E Y Y Y Y Y Y d M M M M J L L E E R 5 : 4 : - j B N                           ",
"                                                                                            , - j j M                           ",
"                                                                                            > , j j B                           ",
"                                                                                      @ * + - > x x k                           ",
"                                                                                      N p B k p B k j                           ",
"                                                                                    & k N k c N c j j                           ",
"                                                  c S S c S S l S j S S S k S S S c D d M M j B O                               ",
"                                                k j N j j j j j N d B k B d B C d N i c d p d N %                               ",
"                                                h C B B B C S c B C S S l B j V B C C j B C N d                                 ",
"                                                                                                                                ",
"                                                                                                                                ",
"                                                                                                                                ",
"                                                                                                                                ",
"                                                                                                                                ",
"                                                                                                                                ",
"                                                                                                                                ",
"                                                                                                                                ",
"                                                                                                                                ",
"                                                                                                                                ",
"                                                                                                                                ",
"                                                                                                                                ",
"                                                                                                                                "
};
