/* XPM */
static char * mouse_xpm[] = {
"64 64 180 2",
"  	c #28810C",
". 	c #D89192",
"+ 	c #BAAB9C",
"@ 	c #E6A491",
"# 	c #E7A491",
"$ 	c #E6A68C",
"% 	c #D6938E",
"& 	c #C0A89F",
"* 	c #E8A592",
"= 	c #DC9092",
"- 	c #E0A990",
"; 	c #D39495",
"> 	c #D39398",
", 	c #FFF6EC",
"' 	c #FFF5E9",
") 	c #FEF8ED",
"! 	c #F9FBEB",
"~ 	c #FFF8EA",
"{ 	c #FFF6EB",
"] 	c #E6A790",
"^ 	c #EBA295",
"/ 	c #CCAFA3",
"( 	c #BBAAA1",
"_ 	c #E8A590",
": 	c #EAA492",
"< 	c #E9A493",
"[ 	c #E8A58F",
"} 	c #FFF8EB",
"| 	c #FFF7EB",
"1 	c #E8A690",
"2 	c #E8A593",
"3 	c #C8AFA4",
"4 	c #F8FDEF",
"5 	c #FEF9E9",
"6 	c #FFF6E6",
"7 	c #FEFAF0",
"8 	c #38C599",
"9 	c #ECECEC",
"0 	c #FEF6F1",
"a 	c #FFFAE8",
"b 	c #FFF5E7",
"c 	c #F1F5EE",
"d 	c #FFF7EA",
"e 	c #FEF9EF",
"f 	c #FBF0EC",
"g 	c #FFF7ED",
"h 	c #EAF5ED",
"i 	c #FEF7EE",
"j 	c #F8EBE8",
"k 	c #FDF9E8",
"l 	c #FFF7E9",
"m 	c #EDF8F0",
"n 	c #FFF8E9",
"o 	c #FDF9EB",
"p 	c #FFF9EB",
"q 	c #FEF7EA",
"r 	c #FFF6EA",
"s 	c #FFF5E8",
"t 	c #F9F8EE",
"u 	c #F8F8ED",
"v 	c #F9F8ED",
"w 	c #FFF8E8",
"x 	c #E7D3C8",
"y 	c #E5D4C6",
"z 	c #FEF8EA",
"A 	c #FFF9EA",
"B 	c #FEF6E9",
"C 	c #F1E4D9",
"D 	c #F1E4D7",
"E 	c #EFE5D5",
"F 	c #FEFAE9",
"G 	c #C2D2CB",
"H 	c #FEF5EB",
"I 	c #FEF9EB",
"J 	c #E9A695",
"K 	c #EAA696",
"L 	c #DCA295",
"M 	c #FAFBEC",
"N 	c #FEF7E8",
"O 	c #D5A999",
"P 	c #E7A797",
"Q 	c #FFF7EC",
"R 	c #FFF6ED",
"S 	c #E7A592",
"T 	c #E5A693",
"U 	c #DEA195",
"V 	c #F9FBEC",
"W 	c #FEF8E8",
"X 	c #DAAA9A",
"Y 	c #EAA394",
"Z 	c #FCFAE9",
"` 	c #E6A692",
" .	c #E4A792",
"..	c #D7A691",
"+.	c #DBA99B",
"@.	c #EBA48C",
"#.	c #EBD1C7",
"$.	c #E7D3C6",
"%.	c #E6D4C8",
"&.	c #FDF8EC",
"*.	c #ECD0C7",
"=.	c #D9A99C",
"-.	c #D5AA9E",
";.	c #C49891",
">.	c #C6969C",
",.	c #C7979F",
"'.	c #E8D3C6",
").	c #E8D5CA",
"!.	c #E3D4C9",
"~.	c #F2E8DC",
"{.	c #EAA491",
"].	c #D9928D",
"^.	c #DB9192",
"/.	c #DA9291",
"(.	c #E5D4C8",
"_.	c #F1E3D8",
":.	c #96AEA5",
"<.	c #ECA194",
"[.	c #E6A68E",
"}.	c #DA908F",
"|.	c #EFE4DA",
"1.	c #FDF9EC",
"2.	c #FFF9ED",
"3.	c #FFF9EE",
"4.	c #FFF8ED",
"5.	c #FCF9EB",
"6.	c #E8A28C",
"7.	c #E6A298",
"8.	c #DB9190",
"9.	c #DB9193",
"0.	c #DB9095",
"a.	c #EBBBAB",
"b.	c #E9A590",
"c.	c #E9D3C8",
"d.	c #E7D6C9",
"e.	c #E08D92",
"f.	c #D99294",
"g.	c #DA9295",
"h.	c #DA9090",
"i.	c #D99094",
"j.	c #B79F9B",
"k.	c #E7A292",
"l.	c #DB918F",
"m.	c #E9BCAF",
"n.	c #E6D3C8",
"o.	c #EAD3C9",
"p.	c #D88F8F",
"q.	c #DA9094",
"r.	c #BC9B9F",
"s.	c #DC8F92",
"t.	c #DC9093",
"u.	c #D99190",
"v.	c #E5A196",
"w.	c #DB948E",
"x.	c #DD908B",
"y.	c #AAAA9B",
"z.	c #A8ACA4",
"A.	c #ADAA9E",
"B.	c #E8A290",
"C.	c #8BB2B4",
"D.	c #A5A99C",
"E.	c #EDA294",
"F.	c #ECA48E",
"G.	c #E0A89D",
"H.	c #E5A698",
"I.	c #98ACA9",
"J.	c #E7A595",
"K.	c #EAA490",
"L.	c #EBA390",
"M.	c #EAA48F",
"N.	c #E7A58F",
"O.	c #E7A590",
"P.	c #E9A48F",
"Q.	c #EAA390",
"R.	c #EBA590",
"S.	c #E9A497",
"T.	c #E9A397",
"U.	c #E5A697",
"V.	c #E7A697",
"W.	c #E8A888",
"                                                                                                                                ",
"                                                                                                                                ",
"                                                                                                                                ",
"                                                                                                                                ",
"                                                                                                                                ",
"                                                                                                                                ",
"                                                                                                                                ",
"                                                                                                                                ",
"                                                                                                                                ",
"                                                                                                                                ",
"                                                                                                                                ",
"                                                                                                                                ",
"                                                                    . . . .                                                     ",
"                                                    + @ @ # @ $     . . % .                                                     ",
"                                                    & * * * * *     . = . .                                                     ",
"                                                    & * * * * -     . ; > .                                                     ",
"                                                    & * * * * - , , ' ) ! ~ , , { , , ] ^ /                                     ",
"                                                    ( _ _ : < [ } } { } | | } } } } } 1 2 3                                     ",
"                                                          4 5 6 } } 7 8 9 0 } } } } } a b c                                     ",
"                                                          , d } } } e 8 8 f } } } } } } g h                                     ",
"                                                          , d } } } i 8 8 j } } } } } k l m                                     ",
"                                                          , d } } } n o } } } } } } d                                           ",
"                                                          , d } } } } } p p p | } } d                                           ",
"                                                          , d } } } q d r r r s t u v                                           ",
"                                                          , d } } } w x x x x y                                                 ",
"                                                          , d } } } w x x x x y                                                 ",
"                                                          z A } } } B C D D D E                                                 ",
"                                                      } } } } } } } } } } } } F                                                 ",
"                                                    G } } } } } } } } } } } } F                                                 ",
"                                                H H I } } } } n J K L M N O K P                                                 ",
"                                                Q Q A } } } } R S T U V W X T Y                                                 ",
"                                                } } } } } } } Z `  ...g W +. .@.                                                ",
"                                          #.$.%.} } } } } } } | } } } } | | } &.| } d                                           ",
"                                          #.x %.} } } } } } } } } } } } } } } } } } d                                           ",
"                                          #.x %.} } } } } } } } } } } } } } } } } } d                                           ",
"                                          #.x %.} } } } } } } } } } } } } } } } } } d                                           ",
"                                          *.x %.p p } } } } } } } } } } } } } } } } d                                           ",
"                                =.-.;.>.,.'.x ).!.!.~.} } } } } } } } } } } } } } } d                                           ",
"                                {._ ].^./.(.x x x x _.} } } } } } } } } } } } } } } d                                           ",
"                              :.<.[.}.^./.(.x x x x |.| | , | 1.2.2.3.4.4.2.3.p 5.| |                                           ",
"                          6.# 7.8.9.0.^./.(.x x x x a.S S S S b.c.c.c.c.c.c.c.d.e.f.g.h.i.j.                                    ",
"                          # * k.l.^.^.^./.(.x x x $.m.* * * * _ n.x x x x x x o.p.^.^.^.q.r.                                    ",
"                          # * k.l.^.^.^./.(.x x x $.m.* * * * _ n.x x x x x x o.p.^.^.^.q.r.                                    ",
"                          # * k.l.s.                                                                                            ",
"                          # * k.t.u.                                                                                            ",
"                          # * v.w.x.y.z.A.                                                                                      ",
"                          # * * * * * * B.                                                                                      ",
"                          # * * * * * * B.C.                                                                                    ",
"                              D.E.* * * F.G.H.H.H.H.H.H.H.H.H.H.H.H.H.H.H.H.H.                                                  ",
"                              I.J._ [ _ _ [.K.L.M.M.L.N.N.L.M.M._ O.P.Q.Q.P.K.[                                                 ",
"                                R.S.S.S.S.S.S.S.S.S.T.U.U.T.S.S.V.U.S.S.S.S.S.W.                                                ",
"                                                                                                                                ",
"                                                                                                                                ",
"                                                                                                                                ",
"                                                                                                                                ",
"                                                                                                                                ",
"                                                                                                                                ",
"                                                                                                                                ",
"                                                                                                                                ",
"                                                                                                                                ",
"                                                                                                                                ",
"                                                                                                                                ",
"                                                                                                                                ",
"                                                                                                                                "};
