/* XPM */
static char * Catto4_xpm[] = {
"64 64 11 1",
" 	c #097E09",
".	c #000000",
"+	c #D8D8D8",
"@	c #C9C1C1",
"#	c #065606",
"$	c #A79E9E",
"%	c #8B7A84",
"&	c #A999A2",
"*	c #C9B0BE",
"=	c #FFFFFF",
"-	c #16C0D9",
"                                                                ",
"                                                                ",
"                                                                ",
"                                                                ",
"                                                                ",
"                                                                ",
"                                                                ",
"                                                                ",
"                                                                ",
"                                                                ",
"                                                                ",
"                                                                ",
"                                                                ",
"                                                                ",
"                         .....                                  ",
"                        .++++@..                                ",
"                       .+++..+++.                               ",
"                        ...  .++@.                              ",
"                            ##.++.                              ",
"                           ###.+@.                              ",
"                           ##.++.                               ",
"                           ##.+.                                ",
"                             .+.                                ",
"                        ###  ...                                ",
"                        ###..@$$..                              ",
"                       ###.++@@@$$. ..                          ",
"                       ##.+++@@@@$$...                          ",
"                       ##.+++++@@@$...                          ",
"                       ...++++@+@@$.                            ",
"                       ...++++++@@$.                            ",
"                       ...+++++@@@$.                            ",
"                       ##.++++@++@$.                            ",
"                       ##.+++@+++@$.                            ",
"                       ##.+++@+@+@$.                            ",
"                       ##.+++++@+@$...                          ",
"                      ###.++++@++@$...                          ",
"                      ###.++++@++@$...                          ",
"                       ...++++@++@$.                            ",
"                       ....++++++@..                            ",
"                       ..##.+++++.                              ",
"                        ####.....                               ",
"                        ##..+++++..                             ",
"                        #.+++++++++.                            ",
"                       ##.+.+++++.+.                            ",
"                       #.+.%.+++.%.+.                           ",
"                       #..&*%.+.*&%..                           ",
"                       #..**&.+.**&..                           ",
"                        .+++++++++++.                           ",
"                        #....+++....                            ",
"                         .=-=+.+=-=.                            ",
"                          ..=...=..                             ",
"                         ###.....                               ",
"                     ###....    ....                            ",
"                     ... #.      .  ...                         ",
"                        #.        .                             ",
"                        .          .                            ",
"                                                                ",
"                                                                ",
"                                                                ",
"                                                                ",
"                                                                ",
"                                                                ",
"                                                                ",
"                                                                "};
