/* XPM */
static char * barrierre_xpm[] = {
"64 64 9 1",
" 	c #097E09",
".	c #6D3111",
"+	c #A95C33",
"@	c #7E3B18",
"#	c #89411B",
"$	c #A54B1B",
"%	c #A95629",
"&	c #78330D",
"*	c #5C290D",
"                                                                ",
"                                                                ",
"                                                                ",
"   .....                                                .....   ",
"  .++..+.                                              .+..++.  ",
" .+...+++.                                            .+..++++. ",
".+..++++++.                                          .+..++++++.",
".+.++..+++.                                          .+.++...++.",
".+.+++.+++.                                          .+..+++.++.",
".++.++.++..                                          ..+.++..+..",
"..+....++..                                          ..+....+...",
"..++++++...                                          ...+++++.+.",
".@..+++..+.                                          .#..+++..+.",
".@#.....++.                                          .##.....++.",
".@#+++++++.                                          .##@##++++.",
".@#+++++++.                                          .#@###++++.",
".@#+++++++.                                          .#@##+++++.",
".@#+++++++.                                          .#@##+++++.",
".@#+++++++.                                          .#@##+++++.",
".@##++++++.                                          .#@#++++++.",
".@##++++++............................................#@#++++++.",
".@##++++++.++++++++++++++++++++++++++++++++++++++++++.#@#++++++.",
".@@#++++++.$+++++++++++++++++++++++++++++++++++++%%%%.@@#++++++.",
".@@#++++++.$++++%%%%%%%++++%%%%%%%%%++%%%%%%%%%%%%%%%.@##++++++.",
".@@#++++++.++&&&&&&&&&&&&&&&&&&&&&&&&&&&&&&%%%%%%%%%%.@##++++++.",
".@@##+++++.&&&&&&&&&&&&&&&&&&&&&&&&&&&&&&&&&&&&&&&&&&.@#+++++++.",
".@@##+++++................&&&&&&&&&&.........&&&&&&&..@#+++++++.",
".@@##+++++.******************************************.@#+++++++.",
".@@##+++++.                                          .@#+++++++.",
".@###+++++.                                          .@#+++++++.",
".@###+++++.                                          .@##++++++.",
".@##++++++.                                          .@##++++++.",
".@##++++++.                                          .@##++++++.",
".@##++++++.                                          .@##++++++.",
".@##++++++.                                          .@##++++++.",
".@##++++++.                                          .@##++++++.",
".@##++++++.                                          .@##++++++.",
".@@#++++++.                                          .@##++++++.",
".@@#++++++.                                          .@##++++++.",
".@@#++++++.                                          .@###+++++.",
".@@#++++++.                                          .@###+++++.",
".@@#++++++.................*******............      ..@@##+++++.",
".@@#++++++.++++++++++++++++++++++++++++++++++.     ...#@##+++++.",
".@@#++++++.$$$$+++++++++++++++++++++++++++++++......+.#@##+++++.",
".@@#++++++.$$$$$$$$$$$$$$$$$$$$$$$$$$$$$$$$$+++++..++.#@##+++++.",
".@@#++++++.$$$$........................$$$$$$+++++++$.#@@#+++++.",
".@@#++++++...&&&&&&&&&&&&&&&&&&&&&&&&&&...........$$$.##@##++++.",
".@@#++++++.&&&&&&&&&&&&&&&&&&&&&&&&&&&&&&&&&&&&&&&&...##@##++++.",
".@@#++++++..............&&&&&&&&&&&&&&&&&&............###@#++++.",
".@@#++++++.*******************************************###@#++++.",
".@@#++++++.                                          .###@#++++.",
".@@#++++++.                                          .###@#++++.",
".@@##+++++.                                          .###@##+++.",
".@###+++++.                                          .###@##+++.",
".@###+++++.                                          .###@##+++.",
".@@##+++++.                                          .###@##+++.",
".@@##+++++.                                          .###@@#+++.",
".@@###++++.                                          .####@#+++.",
".@@###++++.                                          .####@#+++.",
".@@@###+++.                                          .####@##++.",
".@@@###+++.                                          .####@##++.",
".@@@###+++.                                          .####@##+..",
" .@@###++..                                           ..##@##.. ",
" ........                                              .......  "};
