/* XPM */
static char *c14b39d29a5f4ae3e861bed12c5b9bfaph1BoGAbuQHyKXVl[] = {
/* columns rows colors chars-per-pixel */
"64 64 9 1 ",
"  c #5C290D",
". c #78330D",
"X c #6D3111",
"o c #7E3B18",
"O c #097E09",
"+ c #89411B",
"@ c #A54B1B",
"# c #A95629",
"$ c #A95C33",
/* pixels */
"OOXXXXXXXXXXXXXXXXXXXXXXXXXXXXXXXXXXXXXXXXXXXXXXXXXXXXXXXXOOOOOO",
"XXooooooooooooooooooooooooooooooooooooooooooooooooooXX$$$$XOOOOO",
"Xoooooooo++oooooooooooooooo++++++++ooooooo+++++++++X$$$XXX$XOOOO",
"Xoooo++++++++++++++++++++++++++++++++++++++++$$$$$XX$XX$$XX$XOOO",
"X+++++++++++$$$$$$$$$$$$$$$$$$$$$++++++$$$$$$$$$$$X$$X$$$$X$XOOO",
"X++++++$$$$$$$$$$$$$$$$$$$$$$$$$$$$$$$$$$$$$$$$$$$X$$X$$X$XXXOOO",
"X++++$$$$$$$$$$$$$$$$$$$$$$$$$$$$$$$$$$$$$$$$$$$$$X$$XXXX$$XXOOO",
"X$$$$$$$$$$$$$$$$$$$$$$$$$$$$$$$$$$$$$$$$$$$$$$$$$XX$$$$$$$$XOOO",
"X$$$$$$$$$$$$$$$$$$$$$$$$$$$$$$$$$$$$$$$$$$$$$$$$$$XX$$$$$$XOOOO",
"OX$$$$$$$$$$$$$$$$$$$$$$$$$$$$$$$$$$$$$$$$$$$$$$$$$$XXX$$$XOOOOO",
"OXXXXXXXXXXXXXXXXXXXXXXXXXXXXXXXXXXXXXXXXXXXXXXXXXXXXXXXXXOOOOOO",
"OOOOOOOOOOOOOO X.X@@@$XOOOOOOOOOOOOO X.$@@$XOOOOOOOOOOOOOOOOOOOO",
"OOOOOOOOOOOOOO X.X@@@$XOOOOOOOOOOOOO X.$$$$XOOOOOOOOOOOOOOOOOOOO",
"OOOOOOOOOOOOOO X..@@@$XOOOOOOOOOOOOO X..$$$XOOOOOOOOOOOOOOOOOOOO",
"OOOOOOOOOOOOOO X..@@@$XOOOOOOOOOOOOO X..$$$XOOOOOOOOOOOOOOOOOOOO",
"OOOOOOOOOOOOOO X..X@$$XOOOOOOOOOOOOO X..$$$XOOOOOOOOOOOOOOOOOOOO",
"OOOOOOOOOOOOOO X..X@$$XOOOOOOOOOOOOO X..#$$XOOOOOOOOOOOOOOOOOOOO",
"OOOOOOOOOOOOOO X..X@$$XOOOOOOOOOOOOO X..#$$XOOOOOOOOOOOOOOOOOOOO",
"OOOOOOOOOOOOOO X..X@$$XOOOOOOOOOOOOO X..#$$XOOOOOOOOOOOOOOOOOOOO",
"OOOOOOOOOOOOOO X..X@$$XOOOOOOOOOOOOO X..#$$XOOOOOOOOOOOOOOOOOOOO",
"OOOOOOOOOOOOOO X..X@$$XOOOOOOOOOOOOO X..#$$XOOOOOOOOOOOOOOOOOOOO",
"OOOOOOOOOOOOOO X..X@$$XOOOOOOOOOOOOO X..#$$XOOOOOOOOOOOOOOOOOOOO",
"OOOOOOOOOOOOOO X..X@$$XOOOOOOOOOOOOO X..#$$XOOOOOOOOOOOOOOOOOOOO",
"OOOOOOOOOOOOOO X..X@$$XOOOOOOOOOOOOO X..$$$XOOOOOOOOOOOOOOOOOOOO",
"OOOOOOOOOOOOOO ...X@$$XOOOOOOOOOOOOO X..$$$XOOOOOOOOOOOOOOOOOOOO",
"OOOOOOOOOOOOOO ...X@$$XOOOOOOOOOOOOO X..$$$XOOOOOOOOOOOOOOOOOOOO",
"OOOOOOOOOOOOOO ...X@$$XOOOOOOOOOOOOO ...$$$XOOOOOOOOOOOOOOOOOOOO",
"OOOOOOOOOOOOOO ...X@$$ OOOOOOOOOOOOO ...#$$XOOOOOOOOOOOOOOOOOOOO",
"OOOOOOOOOOOOOO ...X@$$ OOOOOOOOOOOOO ...#$$XOOOOOOOOOOOOOOOOOOOO",
"OOOOOOOOOOOOOO ...X@$$ OOOOOOOOOOOOO ...#$$XOOOOOOOOOOOOOOOOOOOO",
"OOOOOOOOOOOOOO ...X@$$ OOOOOOOOOOOOO ...#$$XOOOOOOOOOOOOOOOOOOOO",
"OOOOOOOOOOOOOO ...X@$$ OOOOOOOOOOOOO ...#$$XOOOOOOOOOOOOOOOOOOOO",
"OOOOOOOOOOOOOO ...X@$$ OOOOOOOOOOOOO ...#$$XOOOOOOOOOOOOOOOOOOOO",
"OOOOOOOOOOOOOO ...X@$$ OOOOOOOOOOOOO ...#$$XOOOOOOOOOOOOOOOOOOOO",
"OOOOOOOOOOOOOO ...X@$$XOOOOOOOOOOOOO ...#$$XOOOOOOOOOOOOOOOOOOOO",
"OOOOOOOOOOOOOO ...X@$$XOOOOOOOOOOOOO ...#$$XOOOOOOOOOOOOOOOOOOOO",
"OOOOOOOOOOOOOO ...X@$$XOOOOOOOOOOOOO X..$$$XOOOOOOOOOOOOOOOOOOOO",
"OOOOOOOOOOOOOO ...X@$$XOOOOOOOOOOOOO X..$$$XOOOOOOOOOOOOOOOOOOOO",
"OOOOOOOOOOOOOO ...X@$$XOOOOOOOOOOOOO X..#$$XOOOOOOOOOOOOOOOOOOOO",
"OOOOOOOOOOOOOO ..X@@$$XOOOOOOOOOOOOO X..#$$XOOOOOOOOOOOOOOOOOOOO",
"OOOOOOOOOOOOOO ..X@@$$XOOOOOOOOOOOOO X..#$$XOOOOOOOOOOOOOOOOOOOO",
"OOOOOOOOOOOOOO ..X@@$$XOOOOOOOOOOOOO X..#$$XOOOOOOOOOOOOOOOOOOOO",
"OOOOOOOOOOOOOO X.X@@$$XOOOOOOOOOOOOO X..#$$XOOOOOOOOOOOOOOOOOOOO",
"OOOOOOOOOOOOOO X.X@@$$XOOOOOOOOOOOOO X.##$$XOOOOOOOOOOOOOOOOOOOO",
"OOOOOOOOOOOOOO X.X@$$$XOOOOOOOOOOOOO X.##$$XOOOOOOOOOOOOOOOOOOOO",
"OOOOOOOOOOOOOO X.X$$$$XOOOOOOOOOOOOO ..##$$XOOOOOOOOOOOOOOOOOOOO",
"OOOOOOOOOOOOOO X.X$$$$XOOOOOOOOOOOOO ..##$$XOOOOOOOOOOOOOOOOOOOO",
"OOOOOOOOOOOOOO X.X$$$$XOOOOOOOOOOOOO ..##$$XOOOOOOOOOOOOOOOOOOOO",
"OOOOOOOOOOOOOO X.X$$$$XOOOOOOOOOOOOO ..##$$XOOOOOOOOOOOOOOOOOOOO",
"OOOOOOOOOOOOOO X.X$$$$XOOOOOOOOOOOOO ..###$XOOOOOOOOOOOOOOOOOOOO",
"OOOOOOOOOOOOOO X.X$$$$XOOOOOOOOOOOOO ..###$XOOOOOOOOOOOOOOOOOOOO",
"OOOOOOOOOOOOOO XXX$$$$XOOOOOOOOOOOOO ..###$XOOOOOOOOOOOOOOOOOOOO",
"OOOOOOOOOOOOOO XXX@$$$XOOOOOOOOOOOOO ..####XOOOOOOOOOOOOOOOOOOOO",
"OOXXXXXXXXXXXX XXXXXXXXXXXXXXXXXXXXXX..####XXXXXXXXXXXXXXXOOOOOO",
"OX++++++++++++++++++++ooooooooooooooXX.####X++++++++XXX$$$XOOOOO",
"XX++++++++++++++++ooooo++++++++++++++XXX+XXoooooo++XX$$XXX$XOOOO",
"X+++++++++++++++ooo+++++++++++++++$$$$$XXX+++++++oXX$XXX$XX$XOOO",
"X++++++ooooooooo+++++++++$$$$$$$$$$$$$$$$$$$$+++++X$$X$$$$XXXOOO",
"Xooooooo++++++++++$$$$$$$$$$$$$$$$$$$$$$$$$$$$$$++X$$X$$X$$XXOOO",
"X+++++++++++$$$$$$$$$$$$$$$$$$$$$$$$$$$$$$$$$$$$$$X$$XX$X$$$XOOO",
"X++++$$$$$$$$$$$$$$$$$$$$$$$$$$$$$$$$$$$$$$$$$$$$$XX$$XXX$$$XOOO",
"XX$$$$$$$$$$$$$$$$$$$$$$$$$$$$$$$$$$$$$$$$$$$$$$$$$XXX$$$$$XOOOO",
"OXX$$$$$$$$$$$$$$$$$$$$$$$$$$$$$$$$$$$$$$$$$$$$$$$$$$XX$$$XOOOOO",
"OOXXXXXXXXXXXXXXXXXXXXXXXXXXXXXXXXXXXXXXXXXXXXXXXXXXXXXXXXOOOOOO"
};
