/* XPM */
static char *_440c97a8f4f483991d6effaaf5153f1pgx90SI9VpWfOo5N[] = {
/* columns rows colors chars-per-pixel */
"64 64 9 1 ",
"  c #5C290D",
". c #78330D",
"X c #6D3111",
"o c #7E3B18",
"O c #097E09",
"+ c #89411B",
"@ c #A54B1B",
"# c #A95629",
"$ c #A95C33",
/* pixels */
"OOOOOOXXXXXXXXXXXXXXXXXXXXXXXXXXXXXXXXXXXXXXXXXXXXXXXXXXXXXXXXOO",
"OOOOOX$$$XX$$$$$$$$$$$$$$$$$$$$$$$$$$$$$$$$$$$$$$$$$$$$$$$$$$XXO",
"OOOOX$$$$$XXX$$$$$$$$$$$$$$$$$$$$$$$$$$$$$$$$$$$$$$$$$$$$$$$$$XX",
"OOOX$$$XXX$$XX$$$$$$$$$$$$$$$$$$$$$$$$$$$$$$$$$$$$$$$$$$$$$++++X",
"OOOX$$$X$XX$$X$$$$$$$$$$$$$$$$$$$$$$$$$$$$$$$$$$$$$$+++++++++++X",
"OOOXX$$X$$X$$X++$$$$$$$$$$$$$$$$$$$$$$$$$$$$$$++++++++++oooooooX",
"OOOXXX$$$$X$$X+++++$$$$$$$$$$$$$$$$$$$$+++++++++ooooooooo++++++X",
"OOOX$XX$XXX$XXo++++++++++$$$$$+++++++++++++++ooo+++++++++++++++X",
"OOOOX$XXX$$XX++oooooooo++++++++++++++++++ooooo++++++++++++++++XX",
"OOOOOX$$$XXX++++++++++oooooooooooooooooooo++++++++++++++++++++XO",
"OOOOOOXXXXXXXXXXXXXXXXXXXXXXXXXXXXXXXXXXXXXXXXXXX XXXXXXXXXXXXOO",
"OOOOOOOOOOOOOOOOOOOOX$###.X OOOOOOOOOOOOOX$$$@XXX OOOOOOOOOOOOOO",
"OOOOOOOOOOOOOOOOOOOOX$###.. OOOOOOOOOOOOOX$$$$XXX OOOOOOOOOOOOOO",
"OOOOOOOOOOOOOOOOOOOOX$###.. OOOOOOOOOOOOOX$$$$X.X OOOOOOOOOOOOOO",
"OOOOOOOOOOOOOOOOOOOOX$###.. OOOOOOOOOOOOOX$$$$X.X OOOOOOOOOOOOOO",
"OOOOOOOOOOOOOOOOOOOOX$$##.. OOOOOOOOOOOOOX$$$$X.X OOOOOOOOOOOOOO",
"OOOOOOOOOOOOOOOOOOOOX$$##.. OOOOOOOOOOOOOX$$$$X.X OOOOOOOOOOOOOO",
"OOOOOOOOOOOOOOOOOOOOX$$##.. OOOOOOOOOOOOOX$$$$X.X OOOOOOOOOOOOOO",
"OOOOOOOOOOOOOOOOOOOOX$$##.. OOOOOOOOOOOOOX$$$$X.X OOOOOOOOOOOOOO",
"OOOOOOOOOOOOOOOOOOOOX$$##.X OOOOOOOOOOOOOX$$$@X.X OOOOOOOOOOOOOO",
"OOOOOOOOOOOOOOOOOOOOX$$##.X OOOOOOOOOOOOOX$$@@X.X OOOOOOOOOOOOOO",
"OOOOOOOOOOOOOOOOOOOOX$$#..X OOOOOOOOOOOOOX$$@@X.X OOOOOOOOOOOOOO",
"OOOOOOOOOOOOOOOOOOOOX$$#..X OOOOOOOOOOOOOX$$@@X.. OOOOOOOOOOOOOO",
"OOOOOOOOOOOOOOOOOOOOX$$#..X OOOOOOOOOOOOOX$$@@X.. OOOOOOOOOOOOOO",
"OOOOOOOOOOOOOOOOOOOOX$$#..X OOOOOOOOOOOOOX$$@@X.. OOOOOOOOOOOOOO",
"OOOOOOOOOOOOOOOOOOOOX$$#..X OOOOOOOOOOOOOX$$@X... OOOOOOOOOOOOOO",
"OOOOOOOOOOOOOOOOOOOOX$$$..X OOOOOOOOOOOOOX$$@X... OOOOOOOOOOOOOO",
"OOOOOOOOOOOOOOOOOOOOX$$$..X OOOOOOOOOOOOOX$$@X... OOOOOOOOOOOOOO",
"OOOOOOOOOOOOOOOOOOOOX$$#... OOOOOOOOOOOOOX$$@X... OOOOOOOOOOOOOO",
"OOOOOOOOOOOOOOOOOOOOX$$#... OOOOOOOOOOOOOX$$@X... OOOOOOOOOOOOOO",
"OOOOOOOOOOOOOOOOOOOOX$$#... OOOOOOOOOOOOO $$@X... OOOOOOOOOOOOOO",
"OOOOOOOOOOOOOOOOOOOOX$$#... OOOOOOOOOOOOO $$@X... OOOOOOOOOOOOOO",
"OOOOOOOOOOOOOOOOOOOOX$$#... OOOOOOOOOOOOO $$@X... OOOOOOOOOOOOOO",
"OOOOOOOOOOOOOOOOOOOOX$$#... OOOOOOOOOOOOO $$@X... OOOOOOOOOOOOOO",
"OOOOOOOOOOOOOOOOOOOOX$$#... OOOOOOOOOOOOO $$@X... OOOOOOOOOOOOOO",
"OOOOOOOOOOOOOOOOOOOOX$$#... OOOOOOOOOOOOO $$@X... OOOOOOOOOOOOOO",
"OOOOOOOOOOOOOOOOOOOOX$$#... OOOOOOOOOOOOO $$@X... OOOOOOOOOOOOOO",
"OOOOOOOOOOOOOOOOOOOOX$$$... OOOOOOOOOOOOOX$$@X... OOOOOOOOOOOOOO",
"OOOOOOOOOOOOOOOOOOOOX$$$..X OOOOOOOOOOOOOX$$@X... OOOOOOOOOOOOOO",
"OOOOOOOOOOOOOOOOOOOOX$$$..X OOOOOOOOOOOOOX$$@X... OOOOOOOOOOOOOO",
"OOOOOOOOOOOOOOOOOOOOX$$$..X OOOOOOOOOOOOOX$$@X..X OOOOOOOOOOOOOO",
"OOOOOOOOOOOOOOOOOOOOX$$#..X OOOOOOOOOOOOOX$$@X..X OOOOOOOOOOOOOO",
"OOOOOOOOOOOOOOOOOOOOX$$#..X OOOOOOOOOOOOOX$$@X..X OOOOOOOOOOOOOO",
"OOOOOOOOOOOOOOOOOOOOX$$#..X OOOOOOOOOOOOOX$$@X..X OOOOOOOOOOOOOO",
"OOOOOOOOOOOOOOOOOOOOX$$#..X OOOOOOOOOOOOOX$$@X..X OOOOOOOOOOOOOO",
"OOOOOOOOOOOOOOOOOOOOX$$#..X OOOOOOOOOOOOOX$$@X..X OOOOOOOOOOOOOO",
"OOOOOOOOOOOOOOOOOOOOX$$#..X OOOOOOOOOOOOOX$$@X..X OOOOOOOOOOOOOO",
"OOOOOOOOOOOOOOOOOOOOX$$#..X OOOOOOOOOOOOOX$$@X..X OOOOOOOOOOOOOO",
"OOOOOOOOOOOOOOOOOOOOX$$$..X OOOOOOOOOOOOOX$$@X..X OOOOOOOOOOOOOO",
"OOOOOOOOOOOOOOOOOOOOX$$$..X OOOOOOOOOOOOOX$@@@..X OOOOOOOOOOOOOO",
"OOOOOOOOOOOOOOOOOOOOX$$$..X OOOOOOOOOOOOOX$@@@..X OOOOOOOOOOOOOO",
"OOOOOOOOOOOOOOOOOOOOX$$$$.X OOOOOOOOOOOOOX$@@@X.X OOOOOOOOOOOOOO",
"OOOOOOOOOOOOOOOOOOOOX$@@$.X OOOOOOOOOOOOOX$@@@X.X OOOOOOOOOOOOOO",
"OOOOOOXXXXXXXXXXXXXXXXXXXXXXXXXXXXXXXXXXXXXXXXXXXXXXXXXXXXXXXXXO",
"OOOOOX$$$XXX$$$$$$$$$$$$$$$$$$$$$$$$$$$$$$$$$$$$$$$$$$$$$$$$$$XO",
"OOOOX$$$$$$XX$$$$$$$$$$$$$$$$$$$$$$$$$$$$$$$$$$$$$$$$$$$$$$$$$$X",
"OOOX$$$$$$$$XX$$$$$$$$$$$$$$$$$$$$$$$$$$$$$$$$$$$$$$$$$$$$$$$$$X",
"OOOXX$$XXXX$$X$$$$$$$$$$$$$$$$$$$$$$$$$$$$$$$$$$$$$$$$$$$$$++++X",
"OOOXXX$X$$X$$X$$$$$$$$$$$$$$$$$$$$$$$$$$$$$$$$$$$$$$$$$$$++++++X",
"OOOX$X$$$$X$$X$$$$$$$$$$$++++++$$$$$$$$$$$$$$$$$$$$$+++++++++++X",
"OOOX$XX$$XX$XX$$$$$++++++++++++++++++++++++++++++++++++++++ooooX",
"OOOOX$XXX$$$X+++++++++ooooooo++++++++oooooooooooooooo++ooooooooX",
"OOOOOX$$$$XXooooooooooooooooooooooooooooooooooooooooooooooooooXX",
"OOOOOOXXXXXXXXXXXXXXXXXXXXXXXXXXXXXXXXXXXXXXXXXXXXXXXXXXXXXXXXOO"
};
