/* XPM */
static char * barrierre5_xpm[] = {
"64 64 3 1",
" 	c #097E09",
".	c #6D3111",
"+	c #7E3B18",
"                            .......                             ",
"                           .........                            ",
"                          .+.....++..                           ",
"                         ..+.+++++++.                           ",
"                         ....+++++++..                          ",
"                         ...++++++++..                          ",
"                         ...++...+++..                          ",
"                         ..+.++++.++..                          ",
"                         ..+..+++.++..                          ",
"                          ..+..++.++.                           ",
"                           ..++..++..                           ",
"                             .......                            ",
"                              ....                              ",
"                              .++.                              ",
"                              .++.                              ",
"                              .++.                              ",
"                              .++.                              ",
"                              .++.                              ",
"                              .++.                              ",
"                              .++.                              ",
"                              .++.                              ",
"                              .++.                              ",
"                              .++.                              ",
"                              .++.                              ",
"                              .++.                              ",
"                              .++.                              ",
"                              .++.                              ",
"                              .++.                              ",
"                              .++.                      ....    ",
"                              .++.                    ..++++..  ",
"                              .++.                   .......... ",
"                              .++..                  ..+++++++. ",
"                              .+++.....................+++++++..",
"                              .+++++++++++++++++++++.+.++++++++.",
"                              .+++++++++++++++++++++.+.+...++++.",
"                              .......................+.+++.+++..",
"                                                    .+.+++..+++.",
"                                                     .+.....++. ",
"                                                     .++++++++. ",
"                                                      ..++++..  ",
"                                                        ....    ",
"                                                                ",
"                                                                ",
"                                                                ",
"                                                                ",
"                                                                ",
"                                                                ",
"                                                                ",
"                                                                ",
"                                                                ",
"                                                                ",
"                                                                ",
"                                                                ",
"                                                                ",
"                                                                ",
"                                                                ",
"                                                                ",
"                                                                ",
"                                                                ",
"                                                                ",
"                                                                ",
"                                                                ",
"                                                                ",
"                                                                "};
