/* XPM */
static char * sol1_xpm[] = {
"64 64 16 1",
" 	c #097E09",
".	c #E30798",
"+	c #FF00CB",
"@	c #FFE100",
"#	c #FFFFFF",
"$	c #17BCCC",
"%	c #062B9A",
"&	c #0A1734",
"*	c #AC7EAE",
"=	c #000000",
"-	c #1D7A49",
";	c #6041AE",
">	c #FF0000",
",	c #D9911B",
"'	c #2B563F",
")	c #FF7000",
"                                                                ",
"                                                                ",
"                                                                ",
"                                                                ",
"     ...                          +++                           ",
"     ...                          +++                           ",
"     ...                          +++                           ",
"  ...@@@...                    +++###+++                        ",
"  ...@@@...     $$$            +++###+++                        ",
"  ...@@@...     $$$            +++###+++                        ",
"     ...        $$$               +++                           ",
"     ...     $$$%%%$$$            +++                           ",
"     ...     $$$%%%$$$            +++         &&&               ",
"             $$$%%%$$$                        &&&               ",
"                $$$                           &&&               ",
"                $$$                        &&&%%%&&&            ",
"                $$$                        &&&%%%&&&            ",
"                                           &&&%%%&&&            ",
"              ***                             &&&               ",
"              ***                             &&&               ",
"              ***                             &&&               ",
"           ***===***            ---                             ",
"           ***===***            ---                             ",
"           ***===***            ---                             ",
"              ***            ---###---                          ",
"              ***            ---###---                          ",
"              ***            ---###---            ***           ",
"                                ---               ***           ",
"       ;;;                      ---               ***           ",
"       ;;;                      ---            ***@@@***        ",
"       ;;;                                     ***@@@***        ",
"    ;;;###;;;                           >>>    ***@@@***        ",
"    ;;;###;;;                           >>>       ***           ",
"    ;;;###;;;                           >>>       ***           ",
"       ;;;                           >>>===>>>    ***           ",
"       ;;;                           >>>===>>>                  ",
"       ;;;                    ,,,    >>>===>>>                  ",
"                              ,,,       >>>                     ",
"            >>>               ,,,       >>>                     ",
"            >>>            ,,,@@@,,,    >>>                     ",
"            >>>            ,,,@@@,,,                            ",
"         >>>%%%>>>         ,,,@@@,,,                            ",
"         >>>%%%>>>            ,,,                               ",
"         >>>%%%>>>            ,,,                +++            ",
"            >>>               ,,,                +++            ",
"            >>>                                  +++            ",
"            >>>                               +++%%%+++         ",
"                                              +++%%%+++         ",
"                                              +++%%%+++         ",
"                                                 +++            ",
"                                                 +++            ",
"                      '''                )))     +++            ",
"                      '''                )))                    ",
"                      '''                )))                    ",
"                   '''%%%'''          )))###)))                 ",
"                   '''%%%'''          )))###)))                 ",
"                   '''%%%'''          )))###)))                 ",
"                      '''                )))                    ",
"                      '''                )))                    ",
"                      '''                )))                    ",
"                                                                ",
"                                                                ",
"                                                                ",
"                                                                "};
