/* XPM */
static char * sol2_xpm[] = {
"64 64 12 1",
" 	c #097E09",
".	c #2500FF",
"+	c #000000",
"@	c #FFFFFF",
"#	c #C10DA4",
"$	c #FFBF00",
"%	c #00E9FF",
"&	c #FF0000",
"*	c #04FF00",
"=	c #5670D8",
"-	c #22A359",
";	c #FF00EC",
"                                                                ",
"                           ...                                  ",
"                           ...                                  ",
"                           ...                                  ",
"                        ...+++...                               ",
"                        ...+++...                               ",
"                        ...+++...                               ",
"                           ...                                  ",
"                           ...                                  ",
"         @@@               ...                     ###          ",
"         @@@                                       ###          ",
"         @@@                                       ###          ",
"      @@@$$$@@@                                 ###$$$###       ",
"      @@@$$$@@@                                 ###$$$###       ",
"      @@@$$$@@@                                 ###$$$###       ",
"         @@@                                       ###          ",
"         @@@                  +++                  ###          ",
"         @@@                  +++                  ###          ",
"                              +++                               ",
"                           +++$$$+++                            ",
"                           +++$$$+++                            ",
"                           +++$$$+++                            ",
"                              +++                               ",
"                              +++               %%%             ",
"                              +++               %%%             ",
"                                                %%%             ",
"                                             %%%+++%%%          ",
"                                             %%%+++%%%          ",
"                                             %%%+++%%%          ",
"             &&&                                %%%             ",
"             &&&                                %%%             ",
"             &&&                                %%%             ",
"          &&&+++&&&                                             ",
"          &&&+++&&&                                             ",
"          &&&+++&&&                                             ",
"             &&&                                                ",
"             &&&                                                ",
"             &&&                                                ",
"                                             ...                ",
"                                             ...                ",
"                                             ...                ",
"             ***             ===          ...$$$...             ",
"             ***             ===          ...$$$...             ",
"             ***             ===          ...$$$...             ",
"          ***$$$***       ===+++===          ...                ",
"          ***$$$***       ===+++===          ...                ",
"          ***$$$***       ===+++===          ...                ",
"             ***             ===                  ---           ",
"             ***             ===                  ---           ",
"             ***             ===                  ---           ",
"                                               ---+++---        ",
"                                               ---+++---        ",
"                                               ---+++---        ",
"                                                  ---           ",
"                              ;;;                 ---           ",
"                              ;;;                 ---           ",
"                              ;;;                               ",
"                           ;;;$$$;;;                            ",
"                           ;;;$$$;;;                            ",
"                           ;;;$$$;;;                            ",
"                              ;;;                               ",
"                              ;;;                               ",
"                              ;;;                               ",
"                                                                "};
