/* XPM */
static char * sol_4_xpm[] = {
"64 64 9 1",
" 	c #097E09",
".	c #80008E",
"+	c #FF0000",
"@	c #000000",
"#	c #001EFF",
"$	c #FFBF00",
"%	c #FF7C00",
"&	c #FFFFFF",
"*	c #FF00EC",
"                                                                ",
"                                                                ",
"                                                                ",
"                                                                ",
"                                                                ",
"                                                                ",
"                                                                ",
"               ...                                              ",
"               ...                                              ",
"               ...                                              ",
"            ...+++...                                           ",
"            ...+++...                                           ",
"            ...+++...                                           ",
"               ...                @@@                           ",
"               ...                @@@          ###              ",
"               ...                @@@          ###              ",
"                               @@@+++@@@       ###              ",
"                  ###          @@@+++@@@    ###$$$###           ",
"                  ###          @@@+++@@@    ###$$$###           ",
"                  ###             @@@       ###$$$###           ",
"               ###$$$###          @@@          ###              ",
"               ###$$$###          @@@          ###              ",
"               ###$$$###                       ###              ",
"                  ###                                           ",
"                  ###                                           ",
"                  ###                                           ",
"                                                                ",
"                                                                ",
"                                                                ",
"                                                                ",
"                                                                ",
"                                                                ",
"         @@@                                                    ",
"         @@@                                                    ",
"         @@@                  %%%                               ",
"      @@@+++@@@               %%%                               ",
"      @@@+++@@@               %%%                               ",
"      @@@+++@@@            %%%+++%%%                            ",
"         @@@               %%%+++%%%                            ",
"         @@@               %%%+++%%%                            ",
"         @@@                  %%%                               ",
"                              %%%                               ",
"                              %%%                               ",
"      &&&                                                       ",
"      &&&                                                       ",
"      &&&                                                       ",
"   &&&$$$&&&                     ***                &&&         ",
"   &&&$$$&&&                     ***                &&&         ",
"   &&&$$$&&&                     ***                &&&         ",
"      &&&                     ***$$$***          &&&+++&&&      ",
"      &&&                     ***$$$***          &&&+++&&&      ",
"      &&&                     ***$$$***          &&&+++&&&      ",
"                                 ***                &&&         ",
"                                 ***                &&&         ",
"                                 ***                &&&         ",
"                                                                ",
"                                                                ",
"                                                                ",
"                                                                ",
"                                                                ",
"                                                                ",
"                                                                ",
"                                                                ",
"                                                                "};
