/* XPM */
static char *result[] = {
/* columns rows colors chars-per-pixel */
"64 64 230 2 ",
"   c #010000",
".  c #0D0000",
"X  c #170400",
"o  c #1E1314",
"O  c #2C0C01",
"+  c #270F0D",
"@  c #2C0C0A",
"#  c #330600",
"$  c #3C0400",
"%  c #320B02",
"&  c #3B0B00",
"*  c #330E09",
"=  c #2D1003",
"-  c #23110C",
";  c #381003",
":  c #2C1213",
">  c #450400",
",  c #4D0C00",
"<  c #451906",
"1  c #4C1D04",
"2  c #4B1E0C",
"3  c #551500",
"4  c #531C02",
"5  c #5B1D00",
"6  c #511E09",
"7  c #431C11",
"8  c #611E03",
"9  c #4C2107",
"0  c #45200D",
"q  c #4C210D",
"w  c #542303",
"e  c #5A2508",
"r  c #462414",
"t  c #4C2313",
"y  c #5C2419",
"u  c #5D3418",
"i  c #692906",
"p  c #7D2600",
"a  c #732C02",
"s  c #7C2E02",
"d  c #7A2C0C",
"f  c #693407",
"g  c #6D330D",
"h  c #753404",
"j  c #7C3303",
"k  c #74330C",
"l  c #7A330A",
"z  c #76390A",
"x  c #642A13",
"c  c #7C2C16",
"v  c #633615",
"b  c #6E3313",
"n  c #6B3D12",
"m  c #6C3A1B",
"M  c #723413",
"N  c #773816",
"B  c #543830",
"V  c #69382A",
"C  c #703E26",
"Z  c #097E09",
"A  c #724115",
"S  c #634229",
"D  c #774629",
"F  c #634534",
"G  c #744F3C",
"H  c #484B4A",
"J  c #872503",
"K  c #832D00",
"L  c #8A2D00",
"P  c #932C00",
"I  c #833202",
"U  c #823903",
"Y  c #823409",
"T  c #883B0A",
"R  c #923301",
"E  c #983706",
"W  c #933B01",
"Q  c #863B13",
"!  c #9E3613",
"~  c #9A4306",
"^  c #8F4912",
"/  c #974916",
"(  c #A64609",
")  c #B54A06",
"_  c #BB570B",
"`  c #A74C13",
"'  c #AD5210",
"]  c #BB5613",
"[  c #BD5B14",
"{  c #B45918",
"}  c #BE5C1A",
"|  c #BB6109",
" . c #A96019",
".. c #BA6218",
"X. c #8A4F2F",
"o. c #A95C26",
"O. c #AE5E25",
"+. c #B15C22",
"@. c #BB5F25",
"#. c #A76127",
"$. c #A9622A",
"%. c #B56325",
"&. c #BC6C2C",
"*. c #A66338",
"=. c #B66835",
"-. c #C54D02",
";. c #D04F02",
":. c #C45503",
">. c #CB5502",
",. c #C45A04",
"<. c #CC5A02",
"1. c #C3560B",
"2. c #CB560A",
"3. c #C45A0B",
"4. c #CA590A",
"5. c #D25600",
"6. c #D15C04",
"7. c #D4590B",
"8. c #C85417",
"9. c #C45C12",
"0. c #CA5C12",
"q. c #C35D1A",
"w. c #D96209",
"e. c #CB621D",
"r. c #D36418",
"t. c #F76F19",
"y. c #FF7219",
"u. c #C35E21",
"i. c #C86B2A",
"p. c #DA7638",
"a. c #F67928",
"s. c #F97A36",
"d. c #8F5C46",
"f. c #956B54",
"g. c #A86C4D",
"h. c #B56D4A",
"j. c #B47E5E",
"k. c #907061",
"l. c #CD7A46",
"z. c #D77948",
"x. c #C17052",
"c. c #EF823A",
"v. c #AF865D",
"b. c #B7855E",
"n. c #B88664",
"m. c #D08043",
"M. c #C78757",
"N. c #EA8B4C",
"B. c #E28955",
"V. c #EF9051",
"C. c #CD9067",
"Z. c #C4987B",
"A. c #D59979",
"S. c #E79B7A",
"D. c #F39F77",
"F. c #CCA979",
"G. c #DDA37F",
"H. c #F9A26C",
"J. c #E9A47B",
"K. c #EDA27D",
"L. c #F3A27C",
"P. c #F9A278",
"I. c #FDB57E",
"U. c #B69682",
"Y. c #EA9C87",
"T. c #F29F82",
"R. c #F29F88",
"E. c #DEA084",
"W. c #D1AD8F",
"Q. c #DAA88C",
"!. c #DBAB93",
"~. c #D9A897",
"^. c #D5AD9B",
"/. c #DAB698",
"(. c #E5A483",
"). c #ECA583",
"_. c #E3AA86",
"`. c #EBA985",
"'. c #E5A48B",
"]. c #ECA48A",
"[. c #E1AC8B",
"{. c #ECAB8A",
"}. c #F3A383",
"|. c #FAA485",
" X c #F3AA85",
".X c #F2A58B",
"XX c #FBA48C",
"oX c #E3B28B",
"OX c #E9B18B",
"+X c #F9B789",
"@X c #E3A994",
"#X c #E8A894",
"$X c #F5A793",
"%X c #F1A994",
"&X c #E5B490",
"*X c #EAB695",
"=X c #F5B99A",
"-X c #D8B2A4",
";X c #D3B2A8",
":X c #E8B5A6",
">X c #F3B9A3",
",X c #E7B6B3",
"<X c #FFC98F",
"1X c #EDC39D",
"2X c #F9C799",
"3X c #FDC39C",
"4X c #F9D49B",
"5X c #EECAA1",
"6X c #F4CBA4",
"7X c #FCCAA2",
"8X c #F7CEAC",
"9X c #FDCEAB",
"0X c #EBD6A8",
"qX c #EDD4AC",
"wX c #FDD1A5",
"eX c #F3D7A9",
"rX c #F3D2AD",
"tX c #FCD3AB",
"yX c #FDD9AA",
"uX c #F5C8B6",
"iX c #ECD5B2",
"pX c #E9D9B3",
"aX c #F2D5B2",
"sX c #FAD5B2",
"dX c #F8D7B8",
"fX c #EBC9C5",
"gX c #F7DACA",
"hX c #FBEAD8",
"jX c #FFF3E2",
"kX c white",
/* pixels */
"Z Z Z Z Z Z Z Z Z Z Z Z Z Z Z Z Z Z Z Z Z Z Z Z Z Z Z Z Z Z Z Z Z Z Z Z Z Z Z Z Z Z Z Z Z Z Z Z Z Z Z Z Z Z Z Z Z Z Z Z Z Z Z Z ",
"Z Z Z Z Z Z Z Z Z Z Z Z Z Z Z Z Z Z Z Z Z Z Z Z Z Z Z Z Z Z Z Z Z Z Z Z Z Z Z Z Z Z Z Z Z Z Z Z Z Z Z Z Z Z Z Z Z Z Z Z Z Z Z Z ",
"Z Z Z Z Z Z Z Z Z Z Z Z Z Z Z Z Z Z Z Z Z Z Z Z Z Z Z Z Z Z Z Z Z Z Z Z Z Z Z Z Z Z Z Z Z Z Z Z Z Z Z Z Z Z Z Z Z Z Z Z Z Z Z Z ",
"Z Z Z Z Z Z Z Z Z Z Z Z Z Z Z Z Z Z Z Z Z Z Z Z Z Z Z Z Z Z Z Z Z Z Z Z Z Z Z Z Z Z Z Z Z Z Z Z Z Z Z Z Z Z Z Z Z Z Z Z Z Z Z Z ",
"Z Z Z Z Z Z Z Z Z Z Z Z Z Z Z Z Z Z Z Z Z Z Z Z Z Z Z Z Z Z Z Z Z Z Z Z Z Z Z Z Z Z Z Z Z Z Z Z Z Z Z Z Z Z Z Z Z Z Z Z Z Z Z Z ",
"Z Z Z Z Z Z Z Z Z Z Z Z Z Z Z Z Z Z Z Z Z Z Z Z Z Z Z Z Z Z Z Z Z Z Z Z Z Z Z Z Z Z Z Z Z Z Z Z Z Z Z Z Z Z Z Z Z Z Z Z Z Z Z Z ",
"Z Z Z Z Z Z Z Z Z Z Z Z Z Z Z Z Z Z Z Z Z Z Z Z Z Z Z Z Z Z Z Z Z Z Z Z Z Z Z Z Z Z Z Z Z Z Z Z Z Z Z Z Z Z Z Z Z Z Z Z Z Z Z Z ",
"Z Z Z Z Z Z Z Z Z Z Z Z Z Z Z Z Z Z Z Z Z Z Z Z Z Z Z Z Z Z Z Z Z Z Z Z Z Z Z Z Z Z Z Z Z Z Z Z Z Z Z Z Z Z Z Z Z Z Z Z Z Z Z Z ",
"Z Z Z Z Z Z Z Z Z Z Z Z Z Z Z Z Z Z Z Z Z Z Z Z Z Z Z Z Z Z Z Z Z Z Z Z Z Z Z Z Z Z Z Z Z Z Z Z Z Z Z Z Z Z Z Z Z Z Z Z Z Z Z Z ",
"Z Z Z Z Z Z Z Z Z Z Z Z Z Z Z Z Z Z Z Z Z Z Z Z Z Z Z Z Z Z Z Z Z Z Z Z Z Z Z Z n C u n Z Z Z Z n B S Z Z Z Z Z Z Z Z Z Z Z Z Z ",
"Z Z Z Z Z Z Z Z Z Z Z Z Z Z Z Z Z Z Z Z Z Z Z Z Z Z Z Z Z Z Z Z Z Z Z Z Z Z Z Z A f f A Z Z Z Z n V v n Z Z Z Z Z Z Z Z Z Z Z Z ",
"Z Z Z Z Z Z Z Z Z Z Z Z Z Z Z Z Z Z Z Z Z Z Z Z Z Z Z Z Z Z Z Z Z Z Z Z Z Z n n v h n n Z Z Z Z A b g n Z Z Z Z Z Z Z Z Z Z Z Z ",
"Z Z Z Z Z Z Z Z Z Z Z Z Z Z Z Z Z Z Z Z Z Z Z Z Z Z Z Z Z Z Z Z Z Z Z Z Z Z G d A h g n Z Z Z Z n h j n Z Z Z Z Z Z Z Z Z Z Z Z ",
"Z Z Z Z Z Z Z Z Z Z Z Z Z Z Z Z Z Z Z Z Z Z Z Z Z Z Z Z Z Z Z Z Z Z Z Z Z Z F c J R L m Z Z Z Z n j p n Z Z Z Z Z Z Z Z Z Z Z Z ",
"Z Z Z Z Z Z Z Z Z Z Z Z Z Z Z Z Z Z Z Z Z Z Z Z Z Z Z Z Z Z Z Z Z Z Z Z Z Z F c ! 8.8.p.l.n.0X0XF.#.{ n Z Z Z Z Z Z Z Z Z Z Z Z ",
"Z Z Z Z Z Z Z Z Z Z Z Z Z Z Z Z Z Z Z Z Z Z Z Z Z Z Z Z Z Z Z Z Z Z Z Z Z Z F M E 8.7.t.s.m.4XwXF.&.1.n Z Z Z Z Z Z Z Z Z Z Z Z ",
"Z Z Z Z Z Z Z Z Z Z Z Z Z Z Z Z Z Z Z Z Z Z Z Z Z Z Z Z Z Z Z Z Z Z Z Z Z Z G ^ ~ :.,.) %. .+XI.N.0.r.n Z Z Z Z Z Z Z Z Z Z Z Z ",
"Z Z Z Z Z Z Z Z Z Z Z Z Z Z Z Z Z Z Z Z Z Z Z Z Z Z Z Z Z Z Z Z Z Z Z Z Z Z *. .| | ..kX    z.s.y.y.a.kX    Z Z Z Z Z Z Z Z Z Z ",
"Z Z Z Z Z Z Z Z Z Z Z Z Z Z Z Z Z Z Z Z Z Z Z Z Z Z Z Z Z Z Z Z Z Z Z Z Z Z =.} | |  .      z.s.y.a.c.      Z Z Z Z Z Z Z Z Z Z ",
"Z Z Z Z Z Z Z Z Z Z Z Z Z Z Z Z Z Z Z Z Z Z Z Z Z Z Z Z Z Z Z Z Z Z Z Z g.h. .3.,._ } ~ ^ K i.r.w.r.r.W ~ E C.Z.f.H H Z Z Z Z Z ",
"Z Z Z Z Z Z Z Z Z Z Z Z Z Z Z Z Z Z Z Z Z Z Z Z Z Z Z Z Z Z Z Z Z Z Z Z M s { 4.:.,.:.e.u.q.1.:.5.5.>.0.e... .*.u X .     Z Z Z ",
"Z Z Z Z Z Z Z Z Z Z Z Z Z Z Z Z Z Z Z Z Z Z Z Z Z Z Z Z Z Z Z Z Z Z Z U.f s %.,.6.w.6.<.-.7.<.6.6.>.5.:._ ' &.#.9 X . . . Z Z Z ",
"Z Z Z Z Z Z Z Z Z Z Z Z Z Z Z Z Z Z Z Z Z Z Z Z Z Z Z Z Z Z Z Z Z Z Z U.z h I J E >.-.;.7.5.:.>.<.<.6.5.:.i.yXyXyX. . . . Z Z Z ",
"Z Z Z Z Z Z Z Z Z Z Z Z Z Z Z Z Z Z Z Z Z Z Z Z Z Z Z Z Z Z Z Z Z Z Z Z.j j U I E q.8.2.2.-.0.1._ ,.1.2.9.&.yXyXyXZ Z Z Z Z Z Z ",
"Z Z Z Z Z Z Z Z Z Z Z Z Z Z Z Z Z Z Z Z Z Z Z Z Z Z Z Z Z Z Z Z Z Z ].j.d h j a j / ` i.p.p.z.p.l.l.z.z.z.M.Z Z Z Z Z Z Z Z Z Z ",
"Z Z Z Z Z Z Z Z Z Z Z Z Z Z Z Z Z Z Z Z Z Z Z Z Z Z Z Z Z Z Z Z $X-X~.h.J I T k z h j m.H.H.P.D.|.D.D.D.}.{.Z Z Z Z Z Z Z Z Z Z ",
"Z Z Z Z Z Z Z Z Z Z Z Z Z Z Z Z Z Z Z Z Z Z Z Z Z Z Z Z Z Z %X#X%X:X'.x.P P I a z f f M.J.J.).].#XY.).}..X*XZ Z Z Z Z Z Z Z Z Z ",
"Z Z Z Z Z Z Z Z Z Z Z Z Z Z Z Z Z Z Z Z Z Z Z Z Z Z Z Z Z Z #X:X:X].R.z.) ` R j z h A C.<X2X}.].$X$X].).'.Q.Z Z Z Z Z Z Z Z Z Z ",
"Z Z Z Z Z Z Z Z Z Z Z Z Z Z Z Z Z Z Z Z Z Z Z Z Z Z Z Z Z Z :X@X%X.XR.B.8.u.P L s h h C.4XwX(.(.Y.].(.`._.oXdXZ Z Z Z Z Z Z Z Z ",
"Z Z Z Z Z Z Z Z Z Z Z Z Z Z Z Z Z Z Z Z Z 6.6.6.<.6.6.<.6.6.{.S.S.XXT.l.%.i.p J I Y h A.7XwXoXoX].`.(._.oX&XtXaXZ Z Z Z Z Z Z Z ",
"Z Z Z Z Z Z Z Z Z Z Z Z Z Z Z Z Z Z Z <.g.o.O.+.%.O.%.O.$.=.Q s Q S.L.<X4X<X^ Y K d l A.9XsX5X8X7X9XtXwXtX8XdXdXhXZ Z Z Z Z Z Z ",
"Z Z Z Z Z Z Z Z Z Z Z Z Z Z Z Z Z Z Z 6.$.%.,.1.3.1.1.[ } { R L Y }.L.1X0XeXz l p c N U.aXiX0XeXeXeX8XqXpXiXuXdXhXZ Z Z Z Z Z Z ",
"Z Z Z Z Z Z Z Z Z Z Z Z Z Z <.<.6.6.6.<.{ [ ) ( ( W W Q Q Q a d d }.].*X0XeXv.n.j.n.n./.aXpXpXqXeXqXpXqX0X8X8XaXhXZ Z Z Z Z Z Z ",
"Z Z Z Z Z Z Z Z Z Z Z Z Z Z 6.1.>.<.9.9.<.3.~ I h 5 9 q 2 2 3 6 5 ].{.=XrXdXrXdXaXqXqXiXiXiXaXiXiXpXpX0X0XwXwXrXhXZ Z Z Z Z Z Z ",
"Z Z Z Z Z Z Z Z Z Z Z Z Z Z $.9.<.6.,.,.:._ W s k w 1 0 2 2 6 5 x Y.].=XrX0XqX0XqXrXaXiXaXaXaXaXaXiXpXiXtXwX6X8XhXZ Z Z Z Z Z Z ",
"Z Z Z Z Z Z Z Z Z Z Z Z F D / ] >.>.>.<.<.[ U 8 i 1 < r t t 4 4 , / N n.qXeXaXrXqXqXqXaXaXaXqXrX8XaXiXrX8X2X&X/.gXZ Z Z Z Z Z Z ",
"Z Z Z Z Z Z Z Z Z Z Z Z m k / q.0.>.>.5.<.[ U 3 w 1 0 r 7 < 1 e i N z b.eX0X0XeXeXdXyXaXsXrX8XsXsXsXtXtXtX3XoXW.gXZ Z Z Z Z Z Z ",
"Z Z Z Z Z Z Z Z Z Z $.$.k s ~ ' _ 1.7.5.5.9.T 8 e 1 q r r q w 4 4 f i g././.eXyX6X5X1X6X6X6X8XsX8X6X3X3X3X=XoX!.gXZ Z Z Z Z Z Z ",
"Z Z Z Z Z Z Z Z Z k.u b I I L L P ) 9.2.5.0.~ s k w 2 r 2 q 1 1 4 4 w e n A 1XwX6X_.oX_.Q.&X6X9X>X_._.`.`._.[.^.Z Z Z Z Z Z Z Z ",
"Z Z Z Z Z Z Z Z Z k.N z s I L L R ` @.9.5.1.W I j 5 4 9 t 2 1 6 w 1 9 e b g =X9X3XJ._.(._.Q.9XsX1X_.K. XJ.`.@X^.Z Z Z Z Z Z Z Z ",
"Z Z Z Z Z Z Z Z Z j./ / K d L L J / / / 5.2.) ( ` i 3 6 2 2 0 9 9 9 9 X.x.h.>X$XXX}.}.`.{.G.9XtX1X_.L.}.).*XdXgXZ Z Z Z Z Z Z Z ",
"Z Z Z Z Z Z Z Z Z C.+.+.Y d L R p j M U 1.2.1.e.+.8 3 6 2 2 2 2 0 0 0 d.Y.#X$XR.XXT.}.S.`.(.wXtX1X(.P.).].@XjXZ Z Z Z Z Z Z Z Z ",
"Z Z Z Z Z Z Z Z Z B.q.+.Y M s L K l M Q ] 1.9.} +.3 5 6 t t t r r r r f.%XY.$XR.R.|.}.T.}.`.7X7X=X{.}.`.'.:XZ Z Z Z Z Z Z Z Z Z ",
"Z Z Z Z Z Z Z g.%.] 1.{ I l Y J s l M d R R L I Q > $ $ # # % % O O O # > > A.%X}.}.}.}. X).{.{._.J.S.(.Q.,XZ Z Z Z Z Z Z Z Z Z ",
"Z Z Z Z Z Z #.*.3.4.0.q.I a I K j l k a j s K s M $ # * * * * * * = = % ; & E.'.Y.}.).}.}.D.).(._.). X'.^.Z Z Z Z Z Z Z Z Z Z Z ",
"Z Z Z Z Z Z #.$.5.>.:.[ L K I s j I s I j U j k x < 7 : @ @ @ @ O = O = = % W.Q.'.].}.}.}.}.}.).`.`.(.=XZ Z Z Z Z Z Z Z Z Z Z Z ",
"Z Z Z Z Z Z #.#.>.<.3.} L K I h j s j l k k h k M M V y % @ + + - @ @ * % # Q.Q.`.K.L.P.D.XX].`.(.Q.!.hXZ Z Z Z Z Z Z Z Z Z Z Z ",
"Z Z Z Z Z Z #.#.3.9.9.@.L L I I a j N M m M k N a Y d i & O - o o o - & > > E.(.J.L.P.|.R.XX].E._.^.;XZ Z Z Z Z Z Z Z Z Z Z Z Z ",
"Z Z Z Z Z Z #.$.0.p.N.B.I s K U U a N D Z Z b z k l M - + + - - - - - - y x E.`.J.).Y.R.R.].Y.'.>XgXZ Z Z Z Z Z Z Z Z Z Z Z Z Z ",
"Z Z Z Z Z Z #.$.9.V.H.+Xa l l h h a n d.Z Z b i N g b b Z Z Z Z Z Z Z b V x (.}.`._.#X%X(.{.].{.8XZ Z Z Z Z Z Z Z Z Z Z Z Z Z Z ",
"Z Z Z Z Z Z #.$.9.B.J.A.Z Z N h l g m G Z Z g m b m v m Z Z Z Z Z Z Z b b C A.|.].^.^.@XQ.Q.(.'.uXZ Z Z Z Z Z Z Z Z Z Z Z Z Z Z ",
"Z Z Z Z /._. XH.H.P.OXZ Z Z M g k b b M Z Z b i m Z Z Z Z Z Z Z Z Z Z Z Z Z $XR.>XZ Z Z Z Z %X'.uXZ Z Z Z Z Z Z Z Z Z Z Z Z Z Z ",
"Z Z Z Z W.{.L.H.P.(.~.Z Z Z b b b b Z Z Z Z M v u Z Z Z Z Z Z Z Z Z Z Z Z Z Q.XX>XZ Z Z Z Z '.@XfXZ Z Z Z Z Z Z Z Z Z Z Z Z Z Z ",
"Z Z Z Z !.].L.|.L.>XZ Z Z Z b b b b Z Z Z Z b b b Z Z Z Z Z Z Z Z Z Z Z Z Z !.XX:XZ Z Z Z Z @X@XfXZ Z Z Z Z Z Z Z Z Z Z Z Z Z Z ",
"Z Z Z ^.@X).).}.].Z Z Z Z Z b b b Z Z Z Z Z b b g Z Z Z Z Z Z Z Z Z Z Z Z Z ~.$X,XZ Z Z Z Z Q.~.fXZ Z Z Z Z Z Z Z Z Z Z Z Z Z Z ",
"Z Z Z ^.~.@X#X#XZ Z Z Z Z Z b b b Z Z Z Z Z b b b Z Z Z Z Z Z Z Z Z Z Z Z Z ^.@X,XZ Z Z Z Z ^.-XfXZ Z Z Z Z Z Z Z Z Z Z Z Z Z Z ",
"Z Z Z Z Z Z Z Z Z Z Z Z Z Z Z Z Z Z Z Z Z Z Z Z Z Z Z Z Z Z Z Z Z Z Z Z Z Z Z Z Z Z Z Z Z Z Z Z Z Z Z Z Z Z Z Z Z Z Z Z Z Z Z Z ",
"Z Z Z Z Z Z Z Z Z Z Z Z Z Z Z Z Z Z Z Z Z Z Z Z Z Z Z Z Z Z Z Z Z Z Z Z Z Z Z Z Z Z Z Z Z Z Z Z Z Z Z Z Z Z Z Z Z Z Z Z Z Z Z Z ",
"Z Z Z Z Z Z Z Z Z Z Z Z Z Z Z Z Z Z Z Z Z Z Z Z Z Z Z Z Z Z Z Z Z Z Z Z Z Z Z Z Z Z Z Z Z Z Z Z Z Z Z Z Z Z Z Z Z Z Z Z Z Z Z Z ",
"Z Z Z Z Z Z Z Z Z Z Z Z Z Z Z Z Z Z Z Z Z Z Z Z Z Z Z Z Z Z Z Z Z Z Z Z Z Z Z Z Z Z Z Z Z Z Z Z Z Z Z Z Z Z Z Z Z Z Z Z Z Z Z Z ",
"Z Z Z Z Z Z Z Z Z Z Z Z Z Z Z Z Z Z Z Z Z Z Z Z Z Z Z Z Z Z Z Z Z Z Z Z Z Z Z Z Z Z Z Z Z Z Z Z Z Z Z Z Z Z Z Z Z Z Z Z Z Z Z Z ",
"Z Z Z Z Z Z Z Z Z Z Z Z Z Z Z Z Z Z Z Z Z Z Z Z Z Z Z Z Z Z Z Z Z Z Z Z Z Z Z Z Z Z Z Z Z Z Z Z Z Z Z Z Z Z Z Z Z Z Z Z Z Z Z Z ",
"Z Z Z Z Z Z Z Z Z Z Z Z Z Z Z Z Z Z Z Z Z Z Z Z Z Z Z Z Z Z Z Z Z Z Z Z Z Z Z Z Z Z Z Z Z Z Z Z Z Z Z Z Z Z Z Z Z Z Z Z Z Z Z Z ",
"Z Z Z Z Z Z Z Z Z Z Z Z Z Z Z Z Z Z Z Z Z Z Z Z Z Z Z Z Z Z Z Z Z Z Z Z Z Z Z Z Z Z Z Z Z Z Z Z Z Z Z Z Z Z Z Z Z Z Z Z Z Z Z Z "
};
