/* XPM */
static char *result[] = {
/* columns rows colors chars-per-pixel */
"64 64 229 2 ",
"   c #010000",
".  c #0D0000",
"X  c #170400",
"o  c #1E1314",
"O  c #2C0C01",
"+  c #270F0D",
"@  c #2C0C0A",
"#  c #330600",
"$  c #3C0400",
"%  c #320B02",
"&  c #3B0B00",
"*  c #330E09",
"=  c #2D1003",
"-  c #23110C",
";  c #381003",
":  c #2C1213",
">  c #450400",
",  c #4D0C00",
"<  c #451906",
"1  c #4C1D04",
"2  c #4B1E0C",
"3  c #551500",
"4  c #531C02",
"5  c #5B1D00",
"6  c #511E09",
"7  c #431C11",
"8  c #611E03",
"9  c #4C2107",
"0  c #45200D",
"q  c #4C210D",
"w  c #542303",
"e  c #5A2508",
"r  c #462414",
"t  c #4C2313",
"y  c #5C2419",
"u  c #5D3717",
"i  c #5B3019",
"p  c #692906",
"a  c #7D2600",
"s  c #732C02",
"d  c #7C2E02",
"f  c #7A2C0C",
"g  c #6E3205",
"h  c #65360A",
"j  c #6D330D",
"k  c #753404",
"l  c #7C3303",
"z  c #74330C",
"x  c #7A330A",
"c  c #76390A",
"v  c #642A13",
"b  c #7C2C16",
"n  c #6E3313",
"m  c #673817",
"M  c #6B3D12",
"N  c #723413",
"B  c #763716",
"V  c #7B3A13",
"C  c #543830",
"Z  c #69382A",
"A  c #097E09",
"S  c #724115",
"D  c #634229",
"F  c #634534",
"G  c #754B34",
"H  c #484B4A",
"J  c #872503",
"K  c #832D00",
"L  c #8A2D00",
"P  c #932C00",
"I  c #833202",
"U  c #823903",
"Y  c #823409",
"T  c #883B0A",
"R  c #923301",
"E  c #983706",
"W  c #933B01",
"Q  c #863B13",
"!  c #9E3613",
"~  c #9E4203",
"^  c #984309",
"/  c #8F4912",
"(  c #974916",
")  c #A64609",
"_  c #B54A06",
"`  c #BB570B",
"'  c #A74C13",
"]  c #AD5210",
"[  c #BB5613",
"{  c #BD5B14",
"}  c #B65A1C",
"|  c #BE5C1A",
" . c #BB6109",
".. c #A96019",
"X. c #BA6218",
"o. c #8A4F2F",
"O. c #A95C26",
"+. c #AE5E25",
"@. c #B15C22",
"#. c #BB5F25",
"$. c #A76127",
"%. c #A9622A",
"&. c #B56325",
"*. c #BC6C2C",
"=. c #A66338",
"-. c #B66835",
";. c #C54D02",
":. c #D04F02",
">. c #C45503",
",. c #CB5502",
"<. c #C45A04",
"1. c #CC5A02",
"2. c #C3560B",
"3. c #CB560A",
"4. c #C45A0B",
"5. c #CA590A",
"6. c #D25600",
"7. c #D15C04",
"8. c #D4590B",
"9. c #C85417",
"0. c #C45C12",
"q. c #CA5C12",
"w. c #C35D1A",
"e. c #D96209",
"r. c #CB621D",
"t. c #D36418",
"y. c #F76F19",
"u. c #FF7219",
"i. c #C35E21",
"p. c #C86B2A",
"a. c #DA7638",
"s. c #F67928",
"d. c #F97A36",
"f. c #945D49",
"g. c #956B54",
"h. c #A86C4D",
"j. c #B56D4A",
"k. c #B47E5E",
"l. c #907061",
"z. c #CD7A46",
"x. c #D77948",
"c. c #C17052",
"v. c #EF823A",
"b. c #AF865D",
"n. c #B7855E",
"m. c #B88664",
"M. c #BA997D",
"N. c #D08043",
"B. c #C78757",
"V. c #EA8B4C",
"C. c #E28955",
"Z. c #EF9051",
"A. c #CD9067",
"S. c #C4987B",
"D. c #D59979",
"F. c #E79B7A",
"G. c #F39F77",
"H. c #CCA979",
"J. c #DDA37F",
"K. c #F9A26C",
"L. c #E9A47B",
"P. c #EDA27D",
"I. c #F3A27C",
"U. c #F9A278",
"Y. c #FDB57E",
"T. c #B69682",
"R. c #EA9C87",
"E. c #F29F82",
"W. c #F29F88",
"Q. c #DEA084",
"!. c #D2AC8B",
"~. c #DAA88C",
"^. c #DCAB94",
"/. c #D8A998",
"(. c #DAB698",
"). c #E5A483",
"_. c #ECA583",
"`. c #E3AA86",
"'. c #EBA985",
"]. c #E5A48B",
"[. c #ECA48A",
"{. c #E1AC8B",
"}. c #ECAB8A",
"|. c #F3A383",
" X c #FAA485",
".X c #F6A887",
"XX c #F2A58B",
"oX c #E3B28B",
"OX c #E9B18B",
"+X c #F9B789",
"@X c #E7A893",
"#X c #F5A993",
"$X c #F1A994",
"%X c #E5B490",
"&X c #E9B695",
"*X c #F5B99A",
"=X c #D5B2A7",
"-X c #E8B5A5",
";X c #ECB2AA",
":X c #F3B9A3",
">X c #E7B6B3",
",X c #FFC98F",
"<X c #EDC39D",
"1X c #F9C799",
"2X c #FDC39C",
"3X c #F9D49B",
"4X c #EECAA1",
"5X c #F4CBA4",
"6X c #FCCAA2",
"7X c #F7CEAC",
"8X c #FDCEAB",
"9X c #EBD6A8",
"0X c #EDD4AC",
"qX c #FDD1A5",
"wX c #F3D7A9",
"eX c #F3D2AD",
"rX c #FCD3AB",
"tX c #FDD9AA",
"yX c #F7CAB3",
"uX c #ECD5B2",
"iX c #E9D9B3",
"pX c #F2D5B2",
"aX c #FAD5B2",
"sX c #F8D7B8",
"dX c #F7DACA",
"fX c #FCEAD6",
"gX c #F9EBD9",
"hX c #FFF3E2",
"jX c white",
/* pixels */
"A A A A A A A A A A A A A A A A A A A A A A A A A A A A A A A A A A A A A A A A A A A A A A A A A A A A A A A A A A A A A A A A ",
"A A A A A A A A A A A A A A A A A A A A A A A A A A A A A A A A A A A A A A A A A A A A A A A A A A A A A A A A A A A A A A A A ",
"A A A A A A A A A A A A A A A A A A A A A A A A A A A A A A A A A A A A A A A A A A A A A A A A A A A A A A A A A A A A A A A A ",
"A A A A A A A A A A A A A A A A A A A A A A A A A A A A A A A A A A A A A A A A A A A A A A A A A A A A A A A A A A A A A A A A ",
"A A A A A A A A A A A A A A A A A A A A A A A A A A A A A A A A A A A A A A A A A A A A A A A A A A A A A A A A A A A A A A A A ",
"A A A A A A A A A A A A A A A A A A A A A A A A A A A A A A A A A A A A A A A A A A A A A A A A A A A A A A A A A A A A A A A A ",
"A A A A A A A A A A A A A A A A A A A A A A A A A A A A A A A A A A A A A A A A A A A A A A A A A A A A A A A A A A A A A A A A ",
"A A A A A A A A A A A A A A A A A A A A A A A A A A A A A A A A A A A A A A A A A A A A A A A A A A A A A A A A A A A A A A A A ",
"A A A A A A A A A A A A A A A A A A A A A A A A A A A A A A A A A A A A A A A A A A A A A A A A A A A A A A A A A A A A A A A A ",
"A A A A A A A A A A A A A A A A A A A A A A A A A A A A A A A A A A A A A A A A M D m M A A A A M C D A A A A A A A A A A A A A ",
"A A A A A A A A A A A A A A A A A A A A A A A A A A A A A A A A A A A A A A A A S h h M A A A A M Z u M A A A A A A A A A A A A ",
"A A A A A A A A A A A A A A A A A A A A A A A A A A A A A A A A A A A A A A M M M k M M A A A A M n j M A A A A A A A A A A A A ",
"A A A A A A A A A A A A A A A A A A A A A A A A A A A A A A A A A A A A A A G b M d j M A A A A M l l M A A A A A A A A A A A A ",
"A A A A A A A A A A A A A A A A A A A A A A A A A A A A A A A A A A A A A A F b P R J m A A A A M l d M A A A A A A A A A A A A ",
"A A A A A A A A A A A A A A A A A A A A A A A A A A A A A A A A A A A A A A C b ! 9.9.a.z.B.0X9XH.$.[ M A A A A A A A A A A A A ",
"A A A A A A A A A A A A A A A A A A A A A A A A A A A A A A A A A A A A A A F B E 9.8.y.V.a.3XqXH.&.{ M A A A A A A A A A A A A ",
"A A A A A A A A A A A A A A A A A A A A A A A A A A A A A A A A A A A A A A G / ~ <.<._ &...+XY.V.q.t.M A A A A A A A A A A A A ",
"A A A A A A A A A A A A A A A A A A A A A A A A A A A A A A A A A A A A A A h... .<...jX    x.d.u.u.s.jX    A A A A A A A A A A ",
"A A A A A A A A A A A A A A A A A A A A A A A A A A A A A A A A A A A A A A -.|  . ...      x.d.u.s.v.      A A A A A A A A A A ",
"A A A A A A A A A A A A A A A A A A A A A A A A A A A A A A A A A A A A h.j...4.<.` X.^ ^ K p.t.e.t.t.W T W A.S.g.H H A A A A A ",
"A A A A A A A A A A A A A A A A A A A A A A A A A A A A A A A A A A A A N d } 4.<.<.<.q.i.w.2.>.6.6.,.5.r.X...=.u X .     A A A ",
"A A A A A A A A A A A A A A A A A A A A A A A A A A A A A A A A A A A T.g d &.<.7.e.7.3.;.8.1.7.7.,.6.>.` ] *.$.9 X . . . A A A ",
"A A A A A A A A A A A A A A A A A A A A A A A A A A A A A A A A A A A M.c k I J E ,.:.:.8.6.>.,.1.1.7.7.>.p.tXtXtX. . . . A A A ",
"A A A A A A A A A A A A A A A A A A A A A A A A A A A A A A A A A A A S.k l U L W w.9.3.3.;.q.<.` <.3.2.0.p.tXtXtXA A A A A A A ",
"A A A A A A A A A A A A A A A A A A A A A A A A A A A A A A A A A A [.m.d k k s l ( ' p.a.a.a.x.z.a.x.x.x.B.A A A A A A A A A A ",
"A A A A A A A A A A A A A A A A A A A A A A A A A A A A A A A A $X=X/.j.J K T x c k l N.K.K.G.U.XXG.G.G.|.OXA A A A A A A A A A ",
"A A A A A A A A A A A A A A A A A A A A A A A A A A A A A A $X@X$X;X].c.P L Y s c h g B.L.L.P.[.$XR.[.W.[.&XA A A A A A A A A A ",
"A A A A A A A A A A A A A A A A A A A A A A A A A A A A A A $X-X$X].R.x._ ' R d c k S A.,X1XXX[.$X$X_.[.[.~.A A A A A A A A A A ",
"A A A A A A A A A A A A A A A A A A A A A A A A A A A A A A -X@X$XXX XC.9.i.E L d s g A.1XqX_.).R.[.[._.}.oXsXA A A A A A A A A ",
"A A A A A A A A A A A A A A A A A A A A A 7.7.7.1.7.7.1.7.7.}.F.F.XXE.z.&.p.a J K Y c D.qXqXoXOX[.`.).`.oXoX7XpXA A A A A A A A ",
"A A A A A A A A A A A A A A A A A A A 1.h.O.+.@.&.+.&.+.%.-.T l Q F..X,X3X,X/ I K K x D.rXrX<XwX6XqXqXrXrX7XsXsXfXA A A A A A A ",
"A A A A A A A A A A A A A A A A A A A 7.%.&.<.2.4.2.2.{ | } R K Y  XI.&X9X3XS f f b B T.pXuXiX9XwXqXeX9XiXuXyXsXgXA A A A A A A ",
"A A A A A A A A A A A A A A 7.7.7.7.7.1.] r._ ) ) T T T Q Q s f f _.[.&X9XwXb.m.k.n.m.(.pXuXuX0XwX0XiX0X9XqX7XpXgXA A A A A A A ",
"A A A A A A A A A A A A A A 7.` ,.1.0.0.1.5.W I l 5 w q < 2 4 3 8 [.}.*XeXaX0XaXpXpXuXuXuXuXuXuXuXiXiXiXwXqXeXeXgXA A A A A A A ",
"A A A A A A A A A A A A A A %.0.1.7.<.<.<.` ^ s k w 2 0 2 2 6 e v [.[.:XeX9X0X0X0XuXpXpXuXpXsXpXpXuXiXeXeXqX5XeXfXA A A A A A A ",
"A A A A A A A A A A A A F G ( [ ,.,.,.1.1.{ I 5 p 9 < t t t 4 5 , Q Q m.0XwXpXpX0X0X9XpXpXeX0XeXpXeX0XeXqX1X%X(.dXA A A A A A A ",
"A A A A A A A A A A O.i m x ( w.q.,.,.6.6.{ l 3 w 1 0 r 0 < 1 e e N c n.wX9X9X9XwXsXwXwXaXpX7XaXaXaXrXrXtX2X~.!.dXA A A A A A A ",
"A A A A A A A A A l.i i z d ~ ] ` 2.8.6.6.0.T p e 1 2 r 7 t q 4 5 g g h.(.oXwXtX5X<X5X5X5X5X7XaX7X5X2X2X2X*X%X(.dXA A A A A A A ",
"A A A A A A A A A l.m j x I J L P _ 0.3.6.0.^ d g w 1 t q q 1 1 4 4 w e m S <XqX2X{.oX`.~.%X5X8X&XoX'.'.'.`.{./.A A A A A A A A ",
"A A A A A A A A A m.( x d I R L R ' #.0.6.2.~ I x 5 4 t t 2 1 1 w w 9 e n N *XrX2X).`.J.`.{.8XaX4X].F..XL.'.@X/.A A A A A A A A ",
"A A A A A A A A A A.} ( K d K P K ! ( ^ 8.,._ ) ^ p 3 6 6 2 2 q 9 9 9 o.k.j.#X#X#X|..X_.}.J.6XrX<X{.I..XR.&XsXdXA A A A A A A A ",
"A A A A A A A A A C.w.+.Y z K P d x z Y 2.q.0.X.@.8 5 6 6 2 2 2 0 0 0 f.R.W.#XW. XW.E.E.'.).rXrX<XL.I.|.].@XhXA A A A A A A A A ",
"A A A A A A A h.&.[ ` } Y z a P K x N Q [ 4.q.| +.5 3 6 2 7 t t r r r g.$XR.#XW.W. X|.G..X'.6X6X*X'.I.}.].-XA A A A A A A A A A ",
"A A A A A A $.$.4.3.q.} I V Y K d x N f R R L I Q > $ $ % % * % O O O % $ > Q.$XXX|.W.|.|._.}.OX`.L.F.).~.>XA A A A A A A A A A ",
"A A A A A A $.=.7.,.>.w.I s l K K x k s K d K l x $ # * * * * * O = = % ; & Q.].R._.E.|.|.P._.).`.'.'.]./.A A A A A A A A A A A ",
"A A A A A A $.$.,.5.q.[ L K I d l l d Y l I l z v < 7 : @ @ @ @ @ O O = = O !.~.]._.|.|.I.|._._.'._._.*XA A A A A A A A A A A A ",
"A A A A A A $.$.4.4.{ | L K I l l d x k z z k z N B Z y % @ + + - @ @ * % # ~.~.'.P.|.|.G. XXX[.{.~.^.fXA A A A A A A A A A A A ",
"A A A A A A $.%.5.a.V.i.L I I I s x V n N n j V s Y f v & O - o o o - & > > Q.).L.U.U.U. XXXR.].~./.=XA A A A A A A A A A A A A ",
"A A A A A A $.%.0.Z.K.C.I d l I l k B n n N n z x x N - + + - - - - + o y v Q._.L._.E.W.|.[.R.).*XdXA A A A A A A A A A A A A A ",
"A A A A A A $.&.| C.G.+Xs z x l k s M n n n n p V j m n A A A A A A A n Z v Q.E.}.{.@X#X].].[.$XyXA A A A A A A A A A A A A A A ",
"A A A A (.`..XK.K.U.OXD.A A B k x k m j n n n M N m m m A A A A A A A B n D D.E.[./././.~.~.).].yXA A A A A A A A A A A A A A A ",
"A A A A ~.`.U.G.U._./.A A A A z N n N n n n n p A A A A A A A A A A A A A A A  X:X;X;XA ;X;X;X[.A A A A A A A A A A A A A A A A ",
"A A A A ~.}.I. XI.:XA A A A A A n N n n n n n m A A A A A A A A A A A A A A A A :X;X;XA ;X;X;XA A A A A A A A A A A A A A A A A ",
"A A A /.@X[.|..X].A A A A A A A n n n n j n n A A A A A A A A A A A A A A A A A ;X;X;XA ;X;X;XA A A A A A A A A A A A A A A A A ",
"A A A =X/.~.@X@XA A A A A A A A n j n A N n n A A A A A A A A A A A A A A A A A >X;X;XA ;X;X;XA A A A A A A A A A A A A A A A A ",
"A A A A A A A A A A A A A A A A n n n A n n N A A A A A A A A A A A A A A A A A >X;X;XA ;X;X;XA A A A A A A A A A A A A A A A A ",
"A A A A A A A A A A A A A A A A A A A A A A A A A A A A A A A A A A A A A A A A A A A A A A A A A A A A A A A A A A A A A A A A ",
"A A A A A A A A A A A A A A A A A A A A A A A A A A A A A A A A A A A A A A A A A A A A A A A A A A A A A A A A A A A A A A A A ",
"A A A A A A A A A A A A A A A A A A A A A A A A A A A A A A A A A A A A A A A A A A A A A A A A A A A A A A A A A A A A A A A A ",
"A A A A A A A A A A A A A A A A A A A A A A A A A A A A A A A A A A A A A A A A A A A A A A A A A A A A A A A A A A A A A A A A ",
"A A A A A A A A A A A A A A A A A A A A A A A A A A A A A A A A A A A A A A A A A A A A A A A A A A A A A A A A A A A A A A A A ",
"A A A A A A A A A A A A A A A A A A A A A A A A A A A A A A A A A A A A A A A A A A A A A A A A A A A A A A A A A A A A A A A A ",
"A A A A A A A A A A A A A A A A A A A A A A A A A A A A A A A A A A A A A A A A A A A A A A A A A A A A A A A A A A A A A A A A ",
"A A A A A A A A A A A A A A A A A A A A A A A A A A A A A A A A A A A A A A A A A A A A A A A A A A A A A A A A A A A A A A A A "
};
