/* XPM */
static char *result[] = {
/* columns rows colors chars-per-pixel */
"64 64 223 2 ",
"   c #010000",
".  c #0D0000",
"X  c #170400",
"o  c #1E1314",
"O  c #2C0C01",
"+  c #270F0D",
"@  c #2C0C0A",
"#  c #330600",
"$  c #3C0400",
"%  c #320B02",
"&  c #3B0B00",
"*  c #330E09",
"=  c #2D1003",
"-  c #23110C",
";  c #381003",
":  c #2C1213",
">  c #450400",
",  c #451906",
"<  c #4C1D04",
"1  c #4B1E0C",
"2  c #551500",
"3  c #531C02",
"4  c #5B1D00",
"5  c #511E09",
"6  c #431C11",
"7  c #611E03",
"8  c #4C2107",
"9  c #45200D",
"0  c #4C210D",
"q  c #542303",
"w  c #5A2508",
"e  c #462414",
"r  c #4C2313",
"t  c #5C2419",
"y  c #5C3418",
"u  c #692906",
"i  c #7D2600",
"p  c #732C02",
"a  c #7C2E02",
"s  c #7A2C0C",
"d  c #6E3205",
"f  c #65360A",
"g  c #6D330D",
"h  c #753404",
"j  c #7C3303",
"k  c #74330C",
"l  c #7A330A",
"z  c #76390A",
"x  c #642A13",
"c  c #7C2C16",
"v  c #6E3313",
"b  c #6B3D12",
"n  c #673818",
"m  c #723413",
"M  c #763716",
"N  c #7B3A13",
"B  c #543830",
"V  c #69382A",
"C  c #097E09",
"Z  c #724115",
"A  c #634229",
"S  c #634534",
"D  c #754B34",
"F  c #484B4A",
"G  c #872503",
"H  c #832D00",
"J  c #8A2D00",
"K  c #932C00",
"L  c #833202",
"P  c #823903",
"I  c #823409",
"U  c #883B0A",
"Y  c #923301",
"T  c #983706",
"R  c #933B01",
"E  c #863B13",
"W  c #9E3613",
"Q  c #9E4203",
"!  c #984309",
"~  c #8F4912",
"^  c #974916",
"/  c #A64609",
"(  c #B54A06",
")  c #BB570B",
"_  c #A74C13",
"`  c #AD5210",
"'  c #BB5613",
"]  c #B25815",
"[  c #BD5B14",
"{  c #B65A1C",
"}  c #BE5C1A",
"|  c #BB6109",
" . c #A96019",
".. c #BA6218",
"X. c #8A4F2F",
"o. c #A95C26",
"O. c #AE5E25",
"+. c #B15C22",
"@. c #BB5F25",
"#. c #A76127",
"$. c #A9622A",
"%. c #B56325",
"&. c #BC6C2C",
"*. c #A66338",
"=. c #B66835",
"-. c #C54D02",
";. c #D04F02",
":. c #C45503",
">. c #CB5502",
",. c #C45A04",
"<. c #CC5A02",
"1. c #C3560B",
"2. c #CB560A",
"3. c #C45A0B",
"4. c #D25600",
"5. c #D15C04",
"6. c #D4590B",
"7. c #C85417",
"8. c #C45C12",
"9. c #CA5C12",
"0. c #C35D1A",
"q. c #D96209",
"w. c #CB621D",
"e. c #D36418",
"r. c #F76F19",
"t. c #FF7219",
"y. c #C35E21",
"u. c #C86B2A",
"i. c #DA7638",
"p. c #F67928",
"a. c #F97A36",
"s. c #945D49",
"d. c #956B54",
"f. c #A86C4D",
"g. c #B56D4A",
"h. c #B47E5E",
"j. c #907061",
"k. c #CD7A46",
"l. c #D77948",
"z. c #AF865D",
"x. c #B7855E",
"c. c #B88664",
"v. c #D08043",
"b. c #C78757",
"n. c #EA8B4C",
"m. c #E28955",
"M. c #EF9051",
"N. c #CD9067",
"B. c #C4987B",
"V. c #D59979",
"C. c #E79B7A",
"Z. c #F39F77",
"A. c #CCA979",
"S. c #DDA37F",
"D. c #F9A26C",
"F. c #E9A47B",
"G. c #EDA27D",
"H. c #F3A27C",
"J. c #F9A278",
"K. c #FDB57E",
"L. c #B69682",
"P. c #EA9C87",
"I. c #F29F82",
"U. c #F29F88",
"Y. c #DEA084",
"T. c #D2AC8B",
"R. c #DAA88C",
"E. c #DCAB94",
"W. c #D8A998",
"Q. c #DAB698",
"!. c #E5A483",
"~. c #ECA583",
"^. c #E3AA86",
"/. c #EBA985",
"(. c #E5A48B",
"). c #ECA48A",
"_. c #E1AC8B",
"`. c #ECAB8A",
"'. c #F3A383",
"]. c #FAA485",
"[. c #F6A887",
"{. c #F2A58B",
"}. c #E3B28B",
"|. c #E9B18B",
" X c #F9B789",
".X c #E7A893",
"XX c #F5A993",
"oX c #F1A994",
"OX c #E5B490",
"+X c #E9B695",
"@X c #F5B99A",
"#X c #D2B0A2",
"$X c #E8B5A5",
"%X c #ECB2AA",
"&X c #F3B9A3",
"*X c #FFC98F",
"=X c #EDC39D",
"-X c #F9C799",
";X c #FDC39C",
":X c #F9D49B",
">X c #EECAA1",
",X c #F4CBA4",
"<X c #FCCAA2",
"1X c #F7CEAC",
"2X c #FDCEAB",
"3X c #EBD6A8",
"4X c #EDD4AC",
"5X c #F4D6A6",
"6X c #FDD1A5",
"7X c #F3D2AD",
"8X c #FCD3AB",
"9X c #F1D8AC",
"0X c #FDD9AA",
"qX c #F7CCB2",
"wX c #ECD5B2",
"eX c #E9D9B3",
"rX c #F2D5B2",
"tX c #FAD5B2",
"yX c #F8D7B8",
"uX c #F7DACA",
"iX c #FCEAD6",
"pX c #F9EBD9",
"aX c white",
/* pixels */
"C C C C C C C C C C C C C C C C C C C C C C C C C C C C C C C C C C C C C C C C C C C C C C C C C C C C C C C C C C C C C C C C ",
"C C C C C C C C C C C C C C C C C C C C C C C C C C C C C C C C C C C C C C C C C C C C C C C C C C C C C C C C C C C C C C C C ",
"C C C C C C C C C C C C C C C C C C C C C C C C C C C C C C C C C C C C C C C C C C C C C C C C C C C C C C C C C C C C C C C C ",
"C C C C C C C C C C C C C C C C C C C C C C C C C C C C C C C C C C C C C C C C C C C C C C C C C C C C C C C C C C C C C C C C ",
"C C C C C C C C C C C C C C C C C C C C C C C C C C C C C C C C C C C C C C C C C C C C C C C C C C C C C C C C C C C C C C C C ",
"C C C C C C C C C C C C C C C C C C C C C C C C C C C C C C C C C C C C C C C C C C C C C C C C C C C C C C C C C C C C C C C C ",
"C C C C C C C C C C C C C C C C C C C C C C C C C C C C C C C C C C C C C C C C C C C C C C C C C C C C C C C C C C C C C C C C ",
"C C C C C C C C C C C C C C C C C C C C C C C C C C C C C C C C C C C C C C C C C C C C C C C C C C C C C C C C C C C C C C C C ",
"C C C C C C C C C C C C C C C C C C C C C C C C C C C C C C C C C C C C C C C C C C C C C C C C C C C C C C C C C C C C C C C C ",
"C C C C C C C C C C C C C C C C C C C C C C C C C C C C C C C C C C C C C C C C b A n b C C C C b B A C C C C C C C C C C C C C ",
"C C C C C C C C C C C C C C C C C C C C C C C C C C C C C C C C C C C C C C C C Z f f b C C C C b B n b C C C C C C C C C C C C ",
"C C C C C C C C C C C C C C C C C C C C C C C C C C C C C C C C C C C C C C b b b h b b C C C C Z m k b C C C C C C C C C C C C ",
"C C C C C C C C C C C C C C C C C C C C C C C C C C C C C C C C C C C C C C D c b a g b C C C C b j j Z C C C C C C C C C C C C ",
"C C C C C C C C C C C C C C C C C C C C C C C C C C C C C C C C C C C C C C S c K Y G n C C C C b j i b C C C C C C C C C C C C ",
"C C C C C C C C C C C C C C C C C C C C C C C C C C C C C C C C C C C C C C B c W 7.7.i.k.b.3X3XA.#.] b C C C C C C C C C C C C ",
"C C C C C C C C C C C C C C C C C C C C C C C C C C C C C C C C C C C C C C S M T 7.6.r.n.i.-X5XA.&.1.b C C C C C C C C C C C C ",
"C C C C C C C C C C C C C C C C C C C C C C C C C C C C C C C C C C C C C C D ~ Q ,.,.( %.^ K.K.n.e.e.b C C C C C C C C C C C C ",
"C C C C C C C C C C C C C C C C C C C C C C C C C C C C C C C C C C C C C C f. .| ,. .aX    m.a.r.t.p.aX    C C C C C C C C C C ",
"C C C C C C C C C C C C C C C C C C C C C C C C C C C C C C C C C C C C C C =.[ | |  .      l.a.t.p.a.      C C C C C C C C C C ",
"C C C C C C C C C C C C C C C C C C C C C C C C C C C C C C C C C C C C f.g.+.| ,.,...! ! P u.e.q.q.w.! U T N.B.d.F F C C C C C ",
"C C C C C C C C C C C C C C C C C C C C C C C C C C C C C C C C C C C C M a { 3.,.,.,.8.0.7.3.:.>.4.>.3.w... .*.y X .     C C C ",
"C C C C C C C C C C C C C C C C C C C C C C C C C C C C C C C C C C C L.d a ..3.<.q.5.6.( 6.6.5.5.>.4.>.) ` &.#.8 X . . . C C C ",
"C C C C C C C C C C C C C C C C C C C C C C C C C C C C C C C C C C C L.z p P G T >.-.;.6.4.>.>.<.<.5.5.:.u.0X0X0X. . . . C C C ",
"C C C C C C C C C C C C C C C C C C C C C C C C C C C C C C C C C C C B.h j P J T 0.7.2.2.:.9.1.) ,.2.1.8.u.0X0X0XC C C C C C C ",
"C C C C C C C C C C C C C C C C C C C C C C C C C C C C C C C C C C oXh.I p l h j ^ _ u.i.i.i.k.k.k.i.l.l.b.C C C C C C C C C C ",
"C C C C C C C C C C C C C C C C C C C C C C C C C C C C C C C C XX#XW.g.G H I k z h j v.D.D.J.Z.].Z.Z.Z.'.|.C C C C C C C C C C ",
"C C C C C C C C C C C C C C C C C C C C C C C C C C C C C C oX.XoX+X(.g.K G L k z f d b.F.F.H.).oXP.~.U.{.+XC C C C C C C C C C ",
"C C C C C C C C C C C C C C C C C C C C C C C C C C C C C C oX$X%XP.U.l.( ( Y a z h Z N.*X-X).{.oXoX).).(.R.C C C C C C C C C C ",
"C C C C C C C C C C C C C C C C C C C C C C C C C C C C C C $X.XoX{.{.m.7.y.K H a p d N.:X6X^.P.P.).~./.`.}.yXC C C C C C C C C ",
"C C C C C C C C C C C C C C C C C C C C C 5.5.5.<.5.5.<.5.5.`.C.C.].I.k.&.u.i G H I z V.<X6X_.|.).(.^.^.}.}.1XrXC C C C C C C C ",
"C C C C C C C C C C C C C C C C C C C <.f.o.O.+.%.O.%.O.$.=.U j E I.J.*X:X*X~ U G s l V.2XtX>X5X<X6X2X6X8X1XyXyXiXC C C C C C C ",
"C C C C C C C C C C C C C C C C C C C 5.$.%.,.1.3.1.1.[ } { Y H H I.F.=X3X5XN p s I M L.rXwX3X9X5X5X7X4XeXwXqXyXpXC C C C C C C ",
"C C C C C C C C C C C C C C 5.5.5.5.5.4.] [ ( / / R U U E E u s s ~.~.+X4X0Xz.x.h.c.c.Q.wXwXeX4X9XwXeX4X3X,X7XrXpXC C C C C C C ",
"C C C C C C C C C C C C C C 5.) >.<.8.[ ,.3.Q L h 4 q 0 1 5 3 4 4 ).).+X7XyX7XrXrXrX4XwXwXwXwXwX3XeXeX3X5X5X8XrXiXC C C C C C C ",
"C C C C C C C C C C C C C C $.8.<.5.,.,.<.) R a k q < 9 , 1 5 4 x P.P.@X7X4X4X4X4XwXrX9XrXrXrXrXrXwXeXwX8X6X,XrXiXC C C C C C C ",
"C C C C C C C C C C #.#.S D ^ ' >.>.>.<.<.[ P 7 u < 6 r r r < 4 2 X.E c.9X4XrX9X4X4X4XwXrX7XrX1X1XrXwX7X6X-X}.Q.uXC C C C C C C ",
"C C C C C C C C C j.y v n l ^ 0.9.>.>.4.<.[ P 2 q < 9 e 6 , < w w m z x.9X3X5X9X5XyX0XtXtXqX1XtXtXtX8X8X8X;XR.T.uXC C C C C C C ",
"C C C C C C C C C j.m l k H ! ` ) 1.6.4.4.8.U 7 w < 1 e 1 e q 5 4 d d f.Q.T.0X0X,X=X>X>X,X,X1XtX1X,X<X;X;X@XOXQ.uXC C C C C C C ",
"C C C C C C C C C h.^ ^ l L J J K ( 8.2.4.8.! a k 3 8 e 0 0 < < 3 3 q w n Z =X6X>X_.}.}.R.OX,X2X$X|./.F./.^._.W.C C C C C C C C ",
"C C C C C C C C C b.@.+.a H J J Y ` @.' 4.1.Q L j 4 3 0 0 1 1 < q q 8 w v g @X8X;XF.^.F.^.R.2XtX=X^.G.'.F./..XW.C C C C C C C C ",
"C C C C C C C C C m.w.+.H a H K J ^ ^ _ 2.2.( / _ 7 2 5 5 1 1 8 8 8 8 X.h.g.XXXXXX'.].~.`.S.8X8X=X/.Z.[.P.+XuXuXC C C C C C C C ",
"C C C C C C C f.%.' ) { I k H K i s k I 1.2.3.} +.7 4 5 1 1 1 1 9 9 9 s.P.U.XXU.].U.I.~./.F.2X8X=X!.H.~.~..XpXC C C C C C C C C ",
"C C C C C C $.*.9.>.9.} I k i J H l M E ' 1.8.} +.2 3 5 r r r e e e e d.oXP.XXU.U.].I.Z.'./.<X<X=X/.H.`.(.$XC C C C C C C C C C ",
"C C C C C C #.$.4.>.,.] L N I J i l v k Y Y K L E > $ $ % # % % O O O % $ > Y.oXU.{.'.'.[.~.`.|.^.F.C.(.E.$XC C C C C C C C C C ",
"C C C C C C #.o.<.<.8.} H a j H a l k p j i H j m $ # * * * * * O = = % ; & Y.(.P.).H.'.'.G.~.!.!./.[._.W.C C C C C C C C C C C ",
"C C C C C C #.#.3.,.[ w.J L L a a L a P j P j l n > 6 : @ @ @ * O @ O = = O T.R.(.'.'.'.'.'.'.)./.~.~.@XC C C C C C C C C C C C ",
"C C C C C C #.$.3.i.n.m.H H j a L h h l k k d k m M V t % @ @ + - @ @ * % # R.R./.F.H.H.Z.].{.).^.R.W.iXC C C C C C C C C C C C ",
"C C C C C C #.$.w.M.D.[.J J L L a h N v m v g N p I j x & O - o o o - & > > Y.!.F.J.J.].U.].).Y._.W.#XC C C C C C C C C C C C C ",
"C C C C C C o.O.} m.F.V.J a j P I h M v v v v k l l m + o + - - - - + o t x Y.~.~.F.I.U.U.).~.(.&XuXC C C C C C C C C C C C C C ",
"C C C C Q.^. XD.D.H.|.C p k l j h p v v v v v u Z d v v C C C C C C C v V x Y.I./.(..XoX(.(.).).qXC C C C C C C C C C C C C C C ",
"C C C C E./.H.D.J.~.E.C C C M h l d n v v v g M M n y n C C C C C C C M v A C.Z.).Q.W.W.R._.~.(.C C C C C C C C C C C C C C C C ",
"C C C C R.`.H.].H.&XC C C C C g k v m v v v v f C C C C C C C C C C C C C C C U.&X%X%X%X%X%X%XC C C C C C C C C C C C C C C C C ",
"C C C W.E.).'.~.).C C C C C C C C k v v v v v C C C C C C C C C C C C C C C C C %X%X%X%X%X%XC C C C C C C C C C C C C C C C C C ",
"C C C #XW..X.X.XC C C C C C C C C v v v g m v C C C C C C C C C C C C C C C C C C %X%X%X%X%XC C C C C C C C C C C C C C C C C C ",
"C C C C C C C C C C C C C C C C C C v v v v m C C C C C C C C C C C C C C C C C C %X%X%X%X%XC C C C C C C C C C C C C C C C C C ",
"C C C C C C C C C C C C C C C C C C v v v v C C C C C C C C C C C C C C C C C C C %X%X%X%X%XC C C C C C C C C C C C C C C C C C ",
"C C C C C C C C C C C C C C C C C C C C C C C C C C C C C C C C C C C C C C C C C C C C C C C C C C C C C C C C C C C C C C C C ",
"C C C C C C C C C C C C C C C C C C C C C C C C C C C C C C C C C C C C C C C C C C C C C C C C C C C C C C C C C C C C C C C C ",
"C C C C C C C C C C C C C C C C C C C C C C C C C C C C C C C C C C C C C C C C C C C C C C C C C C C C C C C C C C C C C C C C ",
"C C C C C C C C C C C C C C C C C C C C C C C C C C C C C C C C C C C C C C C C C C C C C C C C C C C C C C C C C C C C C C C C ",
"C C C C C C C C C C C C C C C C C C C C C C C C C C C C C C C C C C C C C C C C C C C C C C C C C C C C C C C C C C C C C C C C ",
"C C C C C C C C C C C C C C C C C C C C C C C C C C C C C C C C C C C C C C C C C C C C C C C C C C C C C C C C C C C C C C C C ",
"C C C C C C C C C C C C C C C C C C C C C C C C C C C C C C C C C C C C C C C C C C C C C C C C C C C C C C C C C C C C C C C C ",
"C C C C C C C C C C C C C C C C C C C C C C C C C C C C C C C C C C C C C C C C C C C C C C C C C C C C C C C C C C C C C C C C "
};
