/* XPM */
static char *result[] = {
/* columns rows colors chars-per-pixel */
"64 64 230 2 ",
"   c #010000",
".  c #0D0000",
"X  c #170400",
"o  c #1E1314",
"O  c #2C0C01",
"+  c #270F0D",
"@  c #2C0C0A",
"#  c #330600",
"$  c #3C0400",
"%  c #320B02",
"&  c #3B0B00",
"*  c #330E09",
"=  c #2D1003",
"-  c #23110C",
";  c #381003",
":  c #2C1213",
">  c #450400",
",  c #4D0C00",
"<  c #451906",
"1  c #4C1D04",
"2  c #4B1E0C",
"3  c #551500",
"4  c #531C02",
"5  c #5B1D00",
"6  c #511E09",
"7  c #431C11",
"8  c #611E03",
"9  c #4C2107",
"0  c #45200D",
"q  c #4C210D",
"w  c #542303",
"e  c #5A2508",
"r  c #462414",
"t  c #4C2313",
"y  c #5C2419",
"u  c #5C3418",
"i  c #692906",
"p  c #7D2600",
"a  c #732C02",
"s  c #7C2E02",
"d  c #7A2C0C",
"f  c #6E3205",
"g  c #65360A",
"h  c #6D330D",
"j  c #753404",
"k  c #7C3303",
"l  c #74330C",
"z  c #7A330A",
"x  c #76390A",
"c  c #642A13",
"v  c #7C2C16",
"b  c #6E3313",
"n  c #673817",
"m  c #6B3D12",
"M  c #723413",
"N  c #763716",
"B  c #7B3A13",
"V  c #543830",
"C  c #69382A",
"Z  c #703E26",
"A  c #097E09",
"S  c #724115",
"D  c #634229",
"F  c #634534",
"G  c #754B34",
"H  c #484B4A",
"J  c #872503",
"K  c #832D00",
"L  c #8A2D00",
"P  c #932C00",
"I  c #833202",
"U  c #823903",
"Y  c #823409",
"T  c #883B0A",
"R  c #923301",
"E  c #983706",
"W  c #933B01",
"Q  c #863B13",
"!  c #9E3613",
"~  c #9E4203",
"^  c #984309",
"/  c #8F4912",
"(  c #974916",
")  c #A64609",
"_  c #B54A06",
"`  c #BB570B",
"'  c #A74C13",
"]  c #AD5210",
"[  c #BB5613",
"{  c #B25815",
"}  c #BD5B14",
"|  c #B65A1C",
" . c #BE5C1A",
".. c #BC6108",
"X. c #A96019",
"o. c #BA6218",
"O. c #8A4F2F",
"+. c #A95C26",
"@. c #AE5E25",
"#. c #B15C22",
"$. c #BB5F25",
"%. c #A76127",
"&. c #A9622A",
"*. c #B76327",
"=. c #BC6C2C",
"-. c #A66338",
";. c #B66835",
":. c #C54D02",
">. c #D04F02",
",. c #C45503",
"<. c #CB5502",
"1. c #C45A04",
"2. c #CC5A02",
"3. c #C3560B",
"4. c #CB560A",
"5. c #C45A0B",
"6. c #CA590A",
"7. c #D25600",
"8. c #D15C04",
"9. c #D4590B",
"0. c #C85417",
"q. c #C45C12",
"w. c #CA5C12",
"e. c #C35D1A",
"r. c #D96209",
"t. c #CB621D",
"y. c #D36418",
"u. c #F76F19",
"i. c #FF7219",
"p. c #C35E21",
"a. c #C86B2A",
"s. c #DA7638",
"d. c #F67928",
"f. c #F97A36",
"g. c #945D49",
"h. c #956B54",
"j. c #A86C4D",
"k. c #B56D4A",
"l. c #B47E5E",
"z. c #907061",
"x. c #CD7A46",
"c. c #D77948",
"v. c #C17052",
"b. c #EF823A",
"n. c #AF865D",
"m. c #B7855E",
"M. c #B88664",
"N. c #BA997D",
"B. c #D08043",
"V. c #C78757",
"C. c #EA8B4C",
"Z. c #E28955",
"A. c #EF9051",
"S. c #CD9067",
"D. c #D59979",
"F. c #E79B7A",
"G. c #F39F77",
"H. c #CCA979",
"J. c #DDA37F",
"K. c #F9A26C",
"L. c #E9A47B",
"P. c #EDA27D",
"I. c #F3A27C",
"U. c #F9A278",
"Y. c #FDB57E",
"T. c #B69682",
"R. c #EA9C87",
"E. c #F29F82",
"W. c #F29F88",
"Q. c #DEA084",
"!. c #D2AC8B",
"~. c #DAA88C",
"^. c #DCAB94",
"/. c #D8A998",
"(. c #DAB698",
"). c #E5A483",
"_. c #ECA583",
"`. c #E3AA86",
"'. c #EBA985",
"]. c #E5A48B",
"[. c #ECA48A",
"{. c #E1AC8B",
"}. c #ECAB8A",
"|. c #F3A383",
" X c #FAA485",
".X c #F6A887",
"XX c #F2A58B",
"oX c #E3B28B",
"OX c #E9B18B",
"+X c #F9B789",
"@X c #E7A893",
"#X c #F5A993",
"$X c #F1A994",
"%X c #E5B490",
"&X c #E9B695",
"*X c #F5B99A",
"=X c #D5B2A7",
"-X c #E8B5A5",
";X c #ECB2AA",
":X c #F3B9A3",
">X c #E7B6B3",
",X c #FFC98F",
"<X c #EDC39D",
"1X c #F9C799",
"2X c #FDC39C",
"3X c #F9D49B",
"4X c #EECAA1",
"5X c #F4CBA4",
"6X c #FCCAA2",
"7X c #F7CEAC",
"8X c #FDCEAB",
"9X c #EBD6A8",
"0X c #EDD4AC",
"qX c #F4D6A6",
"wX c #FDD1A5",
"eX c #F3D2AD",
"rX c #FCD3AB",
"tX c #F1D8AC",
"yX c #FDD9AA",
"uX c #F7CAB3",
"iX c #ECD5B2",
"pX c #E9D9B3",
"aX c #F2D5B2",
"sX c #FAD5B2",
"dX c #F8D7B8",
"fX c #F7DACA",
"gX c #FCEAD6",
"hX c #F9EBD9",
"jX c #FFF3E2",
"kX c white",
/* pixels */
"A A A A A A A A A A A A A A A A A A A A A A A A A A A A A A A A A A A A A A A A A A A A A A A A A A A A A A A A A A A A A A A A ",
"A A A A A A A A A A A A A A A A A A A A A A A A A A A A A A A A A A A A A A A A A A A A A A A A A A A A A A A A A A A A A A A A ",
"A A A A A A A A A A A A A A A A A A A A A A A A A A A A A A A A A A A A A A A A A A A A A A A A A A A A A A A A A A A A A A A A ",
"A A A A A A A A A A A A A A A A A A A A A A A A A A A A A A A A A A A A A A A A A A A A A A A A A A A A A A A A A A A A A A A A ",
"A A A A A A A A A A A A A A A A A A A A A A A A A A A A A A A A A A A A A A A A A A A A A A A A A A A A A A A A A A A A A A A A ",
"A A A A A A A A A A A A A A A A A A A A A A A A A A A A A A A A A A A A A A A A A A A A A A A A A A A A A A A A A A A A A A A A ",
"A A A A A A A A A A A A A A A A A A A A A A A A A A A A A A A A A A A A A A A A A A A A A A A A A A A A A A A A A A A A A A A A ",
"A A A A A A A A A A A A A A A A A A A A A A A A A A A A A A A A A A A A A A A A A A A A A A A A A A A A A A A A A A A A A A A A ",
"A A A A A A A A A A A A A A A A A A A A A A A A A A A A A A A A A A A A A A A A A A A A A A A A A A A A A A A A A A A A A A A A ",
"A A A A A A A A A A A A A A A A A A A A A A A A A A A A A A A A A A A A A A A A m C u m A A A A m V D A A A A A A A A A A A A A ",
"A A A A A A A A A A A A A A A A A A A A A A A A A A A A A A A A A A A A A A A A S g g S A A A A m C g m A A A A A A A A A A A A ",
"A A A A A A A A A A A A A A A A A A A A A A A A A A A A A A A A A A A A A A m m S j g S A A A A m n l m A A A A A A A A A A A A ",
"A A A A A A A A A A A A A A A A A A A A A A A A A A A A A A A A A A A A A A G v S a h m A A A A m k k m A A A A A A A A A A A A ",
"A A A A A A A A A A A A A A A A A A A A A A A A A A A A A A A A A A A A A A F v J R L n A A A A m k p m A A A A A A A A A A A A ",
"A A A A A A A A A A A A A A A A A A A A A A A A A A A A A A A A A A A A A A F v ! 0.0.s.x.V.0X9XH.%.{ m A A A A A A A A A A A A ",
"A A A A A A A A A A A A A A A A A A A A A A A A A A A A A A A A A A A A A A F b E 0.9.u.b.x.3XqXH.*.q.m A A A A A A A A A A A A ",
"A A A A A A A A A A A A A A A A A A A A A A A A A A A A A A A A A A A A A A G / ~ 1.1._ ..X.+XY.C.w.y.m A A A A A A A A A A A A ",
"A A A A A A A A A A A A A A A A A A A A A A A A A A A A A A A A A A A A A A k.X...1.X.kX    c.f.i.i.d.kX    A A A A A A A A A A ",
"A A A A A A A A A A A A A A A A A A A A A A A A A A A A A A A A A A A A A A ;.o.....X.      c.f.i.d.b.      A A A A A A A A A A ",
"A A A A A A A A A A A A A A A A A A A A A A A A A A A A A A A A A A A A j.k.X.5.1.` o.^ ^ K a.y.r.y.y.W W / S.S.h.H H A A A A A ",
"A A A A A A A A A A A A A A A A A A A A A A A A A A A A A A A A A A A A M s | 5.1.1.1.q.p.e.3.,.7.7.7.5.t.o.+.-.u X .     A A A ",
"A A A A A A A A A A A A A A A A A A A A A A A A A A A A A A A A A A A T.f s *.1.8.r.8.9.:.9.9.8.8.<.7.,.` ] =.%.9 X . . . A A A ",
"A A A A A A A A A A A A A A A A A A A A A A A A A A A A A A A A A A A T.x j I J E <.:.>.9.7.,.2.2.2.8.7.,.a.yXyXyX. . . . A A A ",
"A A A A A A A A A A A A A A A A A A A A A A A A A A A A A A A A A A A N.k k U I E q.0.4.4.:.w.` ` 1.6.3.q.a.yXyXyXA A A A A A A ",
"A A A A A A A A A A A A A A A A A A A A A A A A A A A A A A A A A A [.M.s k j a k ( ' a.s.s.s.s.x.x.c.c.c.V.A A A A A A A A A A ",
"A A A A A A A A A A A A A A A A A A A A A A A A A A A A A A A A $X/./.k.J s Y z x j k B.K.K.U.I.|.G.G.G. XOXA A A A A A A A A A ",
"A A A A A A A A A A A A A A A A A A A A A A A A A A A A A A $X@X$X-X].v.P L Y a x g g V.L.P._.[.XXR.[.|.[.&XA A A A A A A A A A ",
"A A A A A A A A A A A A A A A A A A A A A A A A A A A A A A $X-X;XR.W.c._ _ R k k j S S.,X1X|.[.$X$X[.|.].~.A A A A A A A A A A ",
"A A A A A A A A A A A A A A A A A A A A A A A A A A A A A A -X@X#XW.XXZ.0.p.E J k a j S.2XwX).).R.]._._.}.{.dXA A A A A A A A A ",
"A A A A A A A A A A A A A A A A A A A A A 8.2.8.8.8.8.8.8.2.}.F.F.XXE.x.*.a.p p K Y x D.wXrXoXOX[.[.`.`.oXoX7XaXA A A A A A A A ",
"A A A A A A A A A A A A A A A A A A A 2.j.+.@.#.*.@.*.@.&.;.Q s Q E.U.,X3X,X/ T K d z D.rXrX4X5XwX8XrXwXrX7XdXdXgXA A A A A A A ",
"A A A A A A A A A A A A A A A A A A A 8.&.*.1.3.5.3.` } e.{ R L K |.L.<X9XqXx d p v N T.aXpX9XtXqXqX7X9XiXiXaXdXhXA A A A A A A ",
"A A A A A A A A A A A A A A 8.2.8.8.2.8.{ q._ ) ) W T T Q Q a d d _._.&XtXtXn.m.m.M.M.(.iXiXpX0XtX0XiXpX0X5XeXaXhXA A A A A A A ",
"A A A A A A A A A A A A A A 8.3.<.<.q.q.2.6.W k j 4 w q 2 2 3 4 8 [.[.&XeXdXeXdXaXaX0XiXiXiXaXiXiXpXpX0XqXwXrXaXgXA A A A A A A ",
"A A A A A A A A A A A A A A &.q.8.7.1.1.1.` ^ s z w < q < 2 6 8 c R._.*XeX0X0X0X0X0XaXaXaXaXaXaXaXiXpX0XyXwX5XeXgXA A A A A A A ",
"A A A A A A A A A A A A F G ( ` 6.<.<.2.2.} I 5 i 9 2 r t t 1 5 , O.Q M.0XtXaXtX0X0X0XtXaXeXiXeXaXeX0XeX6X<X%X(.fXA A A A A A A ",
"A A A A A A A A A A A A n z (  .w.<.<.7.7.} k 3 w 1 7 r 0 < 1 e 5 N x m.tX9X9XqXtXsXsXaXdXuX7XsXsXsXsXyXrX2XoX!.fXA A A A A A A ",
"A A A A A A A A A A %.&.l K ^ { ` 3.9.7.7.q./ 8 e 1 0 0 7 t w 6 w f f j.(.oXyXqX4X4X<X5X5X5X7XsX7X6X2X2X2X1X%X/.fXA A A A A A A ",
"A A A A A A A A A z.u h z I L L P _ q.<.7.q.^ s l 4 9 t q q 1 1 4 5 w e n S <XwX1X{.oXoX~.oX5X8X-X{.'.L.'.'.{./.A A A A A A A A ",
"A A A A A A A A A z.M z s K L L R ] $.[ <.,.) I k w 4 q q 2 2 1 w 1 9 e b h *X8X2XL.`.J.`.{.8XsX<X`.P.|.L.).^./.A A A A A A A A ",
"A A A A A A A A A M.( ( K d L P J ( ( ( 7.6._ ) ! i 3 6 2 2 9 9 9 9 9 O.v.l.#X#X#X X|._.}.J.wXrX<X`.I.|.[.OXfXfXA A A A A A A A ",
"A A A A A A A A A V.#.+.Y l K P K z l Y 3.4.3.t.#.8 5 6 2 2 7 2 0 0 0 g.R.[.#XE.W.E.|.E.'.).8XrX<X`.I._.).@XjXA A A A A A A A A ",
"A A A A A A A A A Z.e.| Y d s L p z N Q [ 5.q.| +.8 5 6 t t t t r r r h.$XR.#XW.W. XE.G.|.'.6X6X<X|.|.|.].-XA A A A A A A A A A ",
"A A A A A A A j.*.[ 3.| I B Y K p z b z R R R I Q > $ $ # % % % O O O % $ > Q.$XW. X|.|..X_.}.}.`.L.F.).~.>XA A A A A A A A A A ",
"A A A A A A %.-.5.4.y. .I s s K K k l j s s K s M $ # * * * * * O = = % ; & Q.].R._.E.|.|.P.L.).`.'.|.{./.A A A A A A A A A A A ",
"A A A A A A %.&.7.<.,.[ K K Y k z k s I k I k x c < 7 : @ @ @ @ @ O O = = O !.~.].[..XI.I.|..X[.'._._.*XA A A A A A A A A A A A ",
"A A A A A A %.%.<.2.5.e.L K I s k s z l l l j l M M C y % @ + + + - @ ; % # ~.~.'.P.I.I.G.XX X[.`.~.^.gXA A A A A A A A A A A A ",
"A A A A A A %.%.5.q.} p.L K I k s j z b M b b B a Y z i & @ - o o : - % > > Q.).L.I.U. X XXX[.Q.~./.=XA A A A A A A A A A A A A ",
"A A A A A A &.&.w.s.C.Z.I p k I U j N b b b b l z l M - + + - - - - - o y c Q._.'.L.E.W.|.[.[.].:XfXA A A A A A A A A A A A A A ",
"A A A A A A %.&.5.A.K.+Xa z z k j a b b b b b i B f n b A A A A A A A b C c ).E.'.].@X#X].).[.@X8XA A A A A A A A A A A A A A A ",
"A A A A A A &.&.} Z.L.D.A A N j z f b b b b b N M n n n A A A A A A A b b Z D.E.[.(././.~.~.R.].uXA A A A A A A A A A A A A A A ",
"A A A A (.`..XK.K.U.OXA A A A h N b b b b b b g A A A A A A A A A A A A A A A XX:X;X;XA ;X;X;X[.A A A A A A A A A A A A A A A A ",
"A A A A !.'.I.K.U.).^.A A A A A b b b b b b b n A A A A A A A A A A A A A A A A ;X;X;XA ;X;X;XA A A A A A A A A A A A A A A A A ",
"A A A A ~.}.I. XI.:XA A A A A A b b b h b b b A A A A A A A A A A A A A A A A A ;X;X;XA ;X;X;XA A A A A A A A A A A A A A A A A ",
"A A A /.@X].E. X}.A A A A A A A M b b A b b b A A A A A A A A A A A A A A A A A ;X;X;XA ;X;X;XA A A A A A A A A A A A A A A A A ",
"A A A =X/.^.@X@XA A A A A A A A b h b A b b M A A A A A A A A A A A A A A A A A >X;X;XA ;X;X;XA A A A A A A A A A A A A A A A A ",
"A A A A A A A A A A A A A A A A A A A A A A A A A A A A A A A A A A A A A A A A A A A A A A A A A A A A A A A A A A A A A A A A ",
"A A A A A A A A A A A A A A A A A A A A A A A A A A A A A A A A A A A A A A A A A A A A A A A A A A A A A A A A A A A A A A A A ",
"A A A A A A A A A A A A A A A A A A A A A A A A A A A A A A A A A A A A A A A A A A A A A A A A A A A A A A A A A A A A A A A A ",
"A A A A A A A A A A A A A A A A A A A A A A A A A A A A A A A A A A A A A A A A A A A A A A A A A A A A A A A A A A A A A A A A ",
"A A A A A A A A A A A A A A A A A A A A A A A A A A A A A A A A A A A A A A A A A A A A A A A A A A A A A A A A A A A A A A A A ",
"A A A A A A A A A A A A A A A A A A A A A A A A A A A A A A A A A A A A A A A A A A A A A A A A A A A A A A A A A A A A A A A A ",
"A A A A A A A A A A A A A A A A A A A A A A A A A A A A A A A A A A A A A A A A A A A A A A A A A A A A A A A A A A A A A A A A ",
"A A A A A A A A A A A A A A A A A A A A A A A A A A A A A A A A A A A A A A A A A A A A A A A A A A A A A A A A A A A A A A A A "
};
