/* XPM */
static char * door_xpm[] = {
"64 64 12 1",
" 	c #097E09",
".	c #523515",
"+	c #764E20",
"@	c #FFCA00",
"#	c #000000",
"$	c #272727",
"%	c #656565",
"&	c #0035FF",
"*	c #FFFFFF",
"=	c #4D4D4D",
"-	c #767676",
";	c #4F4D4B",
"                                                                ",
"                                                                ",
"                                                                ",
"                                                                ",
"                                                                ",
"                  ..................................            ",
"                  .++++++++++++++++++++++++++++...  .           ",
"                  .++++++++++++++++++++++++++++.  . .           ",
"                  .+++.......................++.   ..           ",
"                  .+++.+++++++++++++++++++++.++.   @@@          ",
"                  .+++.+++++++++++++++++++++.++. @@# #@@        ",
"                  .+++.+++++++++++++++++++++.++. @#$#$#@        ",
"                  .+++.+++++++++++++++++++++.++.@#$%%%$#@       ",
"                  .+++.+++...............+++.++.@#$&%&$#@       ",
"                  .+++.+++.+++++++++++++.+++.++.@#*%=%*#@       ",
"                  .+++.+++.+++++++++++++.+++.++.@#%=%=%#@       ",
"                  .+++.+++.+++++++++++++.+++.++. @#%%%#@        ",
"                  .+++.+++.+++++++++++++.+++.++. @@###@@        ",
"                  .+++.+++.+++++++++++++.+++.++.   @@@          ",
"                  .+++.+++.+++++++++++++.+++.++.                ",
"                  .+++.+++.+++++++++++++.+++.++.                ",
"                  .+++.+++.+++++++++++++.+++.++.                ",
"                  .+++.+++.+++++++++++++.+++.++.                ",
"                  .+++.+++.+++++++++++++.+++.++.                ",
"                  .+++.+++.+++++++++++++.+++.++.                ",
"                  .+++.+++.+++++++++++++.+++.++.                ",
"                  .+++.+++.+++++++++++++.+++.++.                ",
"                  .+++.+++.+++++++++++++.+++.++.                ",
"                  .+++.+++.+++++++++++++.+++.++.                ",
"                  .+++.+++.+++++++++++++.+++.++.                ",
"                  .+++.+++.+++++++++++++.+++.++.                ",
"                  .+++.+++.+++++++++++++.+@+.++.                ",
"                  .+++.+++.+++++++++++++.@@@.++.                ",
"                  .+++.+++.+++++++++++++.+@+.++.                ",
"                  .+++.+++.+++++++++++++.+++.++.                ",
"                  .+++.+++.+++++++++++++.+++.++.                ",
"                  .+++.+++.+++++++++++++.+++.++.                ",
"                  .+++.+++.+++++++++++++.+++.++.                ",
"                  .+++.+++.+++++++++++++.+++.++.                ",
"                  .+++.+++.+++++++++++++.+++.++.                ",
"                  .+++.+++.+++++++++++++.+++.++.                ",
"                  .+++.+++.+++++++++++++.+++.++.                ",
"                  .+++.+++.+++++++++++++.+++.++.                ",
"                  .+++.+++.+++++++++++++.+++.++.                ",
"                  .+++.+++.+++++++++++++.+++.++.                ",
"                  .+++.+++.+++++++++++++.+++.++.                ",
"                  .+++.+++.+++++++++++++.+++.++.                ",
"                  .+++.+++.+++++++++++++.+++.++.                ",
"                  .+++.+++.+++++++++++++.+++.++.                ",
"                  .+++.+++.+++++++++++++.+++.++.                ",
"                  .+++.+++...............+++.++.                ",
"                  .+++.+++++++++++++++++++++.++.                ",
"                  .+++.+++++++++++++++++++++.++.                ",
"                  .+++.+++++...........+++++.++.                ",
"                  .+++.+++++.-;;;;;;;-.+++++.++.                ",
"                  .+++.+++++.---------.+++++.++.                ",
"                  .+++.+++++.---------.+++++.++.                ",
"                  .+++.+++++.---------.+++++.++.                ",
"                  .+++.+++++.---------.+++++.++.                ",
"                  .+++.+++++.---------.+++++.++.                ",
"                  .+++.......---------.......++.                ",
"                  .+++++++++.---------.++++++++.                ",
"                  .+++++++++.---------.++++++++.                ",
"                  ..............................                "};
